<svg width="261" height="66" viewBox="0.35 0.29 307.749 66.239" fill="none" version="1.1" id="svg4" xmlns="http://www.w3.org/2000/svg" xmlns:xlink="http://www.w3.org/1999/xlink">
  <defs></defs>
  <symbol id="logo-symbol-wordmark">
    <g transform-origin="42.2815px 30.3653px" transform="matrix(0, -2.027412, 3.469915, 0, 9.251863, 2.634686)">
      <g transform="matrix(0.707107, 0.707107, -0.707107, 0.707107, -42.718349, -74.634865)" transform-origin="85px 105px">
        <rect x="74.643" y="94.643" width="10" height="10" fill="url('#gradient-0-9')"></rect>
        <rect x="85.61" y="94.39" width="10" height="10" fill="url('#gradient-0-10')"></rect>
        <rect x="74.39" y="105.61" width="10" height="10" fill="url('#gradient-0-11')"></rect>
        <rect x="85.357" y="105.357" width="10" height="10" fill="url('#gradient-0-12')"></rect>
        <line fill="#c9c9cf" stroke="#c9c9cf" stroke-width="0.25px" stroke-linecap="round" x1="90.374" y1="92.285" x2="90.361" y2="118.412"></line>
        <line fill="#c9c9cf" stroke="#c9c9cf" stroke-width="0.25px" stroke-linecap="round" transform-box="fill-box" transform-origin="50% 50%" x1="79.658" y1="91.628" x2="79.645" y2="117.755"></line>
        <line fill="#c9c9cf" stroke="#c9c9cf" stroke-width="0.25px" stroke-linecap="round" transform-origin="104.712px 91.739px" x1="97.71" y1="99.647" x2="71.583" y2="99.66"></line>
        <line fill="#c9c9cf" stroke="#c9c9cf" stroke-width="0.25px" stroke-linecap="round" transform-origin="105.415px 102.452px" x1="98.413" y1="110.36" x2="72.286" y2="110.373"></line>
      </g>
    </g>
    <path d="M 135.173 21.412 L 140.77 21.412 L 140.77 45.531 L 135.173 45.531 L 135.173 43.006 C 132.878 45.152 130.411 46.224 127.769 46.224 C 124.435 46.224 121.678 45.02 119.499 42.61 C 117.336 40.15 116.255 37.08 116.255 33.398 C 116.255 29.783 117.336 26.77 119.499 24.359 C 121.662 21.949 124.369 20.745 127.621 20.745 C 130.427 20.745 132.945 21.9 135.173 24.211 L 135.173 21.412 Z M 121.95 33.398 C 121.95 35.709 122.569 37.591 123.807 39.043 C 125.079 40.513 126.68 41.248 128.611 41.248 C 130.675 41.248 132.342 40.538 133.613 39.118 C 134.885 37.648 135.52 35.784 135.52 33.522 C 135.52 31.26 134.885 29.394 133.613 27.926 C 132.342 26.489 130.691 25.771 128.66 25.771 C 126.746 25.771 125.145 26.497 123.856 27.95 C 122.586 29.42 121.95 31.235 121.95 33.398 Z M 147.802 21.412 L 153.373 21.412 L 153.373 23.567 C 154.396 22.494 155.305 21.76 156.097 21.363 C 156.906 20.95 157.864 20.745 158.969 20.745 C 160.439 20.745 161.974 21.223 163.575 22.18 L 161.025 27.281 C 159.968 26.522 158.936 26.143 157.93 26.143 C 154.893 26.143 153.373 28.437 153.373 33.027 L 153.373 45.531 L 147.802 45.531 L 147.802 21.412 Z M 190.096 44.961 C 190.096 46.101 190.055 47.1 189.972 47.958 C 189.906 48.833 189.806 49.6 189.674 50.26 C 189.278 52.077 188.503 53.637 187.347 54.941 C 185.168 57.451 182.172 58.705 178.358 58.705 C 175.139 58.705 172.49 57.838 170.41 56.105 C 168.264 54.322 167.025 51.853 166.695 48.701 L 172.292 48.701 C 172.507 49.89 172.861 50.806 173.356 51.45 C 174.512 52.951 176.196 53.703 178.407 53.703 C 182.485 53.703 184.524 51.202 184.524 46.2 L 184.524 42.832 C 182.312 45.093 179.762 46.224 176.873 46.224 C 173.588 46.224 170.896 45.036 168.801 42.659 C 166.687 40.249 165.63 37.236 165.63 33.621 C 165.63 30.104 166.613 27.116 168.577 24.657 C 170.691 22.048 173.48 20.745 176.947 20.745 C 179.985 20.745 182.511 21.876 184.524 24.137 L 184.524 21.412 L 190.096 21.412 L 190.096 44.961 Z M 184.747 33.522 C 184.747 31.178 184.12 29.304 182.865 27.901 C 181.594 26.464 179.968 25.747 177.987 25.747 C 175.874 25.747 174.206 26.531 172.985 28.099 C 171.879 29.502 171.326 31.317 171.326 33.546 C 171.326 35.742 171.879 37.542 172.985 38.944 C 174.19 40.48 175.858 41.248 177.987 41.248 C 180.117 41.248 181.8 40.472 183.039 38.92 C 184.177 37.516 184.747 35.718 184.747 33.522 Z M 204.73 41.05 L 193.884 21.412 L 200.347 21.412 L 207.726 35.28 L 214.611 21.412 L 220.9 21.412 L 201.685 58.655 L 195.321 58.655 L 204.73 41.05 Z M 230.706 3.708 L 230.706 45.531 L 225.134 45.531 L 225.134 3.708 L 230.706 3.708 Z M 259.727 34.785 L 242.443 34.785 C 242.592 36.766 243.235 38.342 244.374 39.514 C 245.514 40.67 246.974 41.248 248.758 41.248 C 250.144 41.248 251.291 40.918 252.2 40.257 C 253.091 39.596 254.106 38.375 255.245 36.592 L 259.95 39.217 C 259.224 40.455 258.456 41.519 257.647 42.412 C 256.838 43.286 255.972 44.012 255.047 44.591 C 254.123 45.152 253.124 45.564 252.05 45.828 C 250.978 46.092 249.814 46.224 248.56 46.224 C 244.96 46.224 242.071 45.069 239.892 42.758 C 237.713 40.43 236.624 37.344 236.624 33.497 C 236.624 29.684 237.68 26.597 239.793 24.236 C 241.923 21.909 244.746 20.745 248.262 20.745 C 251.811 20.745 254.618 21.876 256.681 24.137 C 258.729 26.381 259.752 29.493 259.752 33.472 L 259.727 34.785 Z M 254.007 30.228 C 253.231 27.257 251.357 25.771 248.386 25.771 C 247.709 25.771 247.073 25.879 246.479 26.093 C 245.885 26.291 245.34 26.588 244.845 26.984 C 244.366 27.364 243.954 27.827 243.607 28.371 C 243.261 28.916 242.996 29.535 242.814 30.228 L 254.007 30.228 Z" id="text21" fill="#c9c9cf" stroke="#c9c9cf" stroke-linejoin="round" aria-label="argyle"></path>
    <defs id="defs5">
      <linearGradient id="gradient-0">
        <stop stop-color="#6364FF" offset="0"></stop>
        <stop stop-color="#563ACC" offset="1"></stop>
      </linearGradient>
      <linearGradient id="gradient-0-9" gradientUnits="userSpaceOnUse" x1="40.407" y1="97.4" x2="40.407" y2="107.4" gradientTransform="matrix(1, 0, 0, 1, 39.237117, -2.756915)" xlink:href="#gradient-0"></linearGradient>
      <linearGradient id="gradient-0-10" gradientUnits="userSpaceOnUse" x1="40.407" y1="97.4" x2="40.407" y2="107.4" gradientTransform="matrix(1, 0, 0, 1, 50.204251, -3.010692)" xlink:href="#gradient-0"></linearGradient>
      <linearGradient id="gradient-0-11" gradientUnits="userSpaceOnUse" x1="40.407" y1="97.4" x2="40.407" y2="107.4" gradientTransform="matrix(1, 0, 0, 1, 38.98334, 8.21022)" xlink:href="#gradient-0"></linearGradient>
      <linearGradient id="gradient-0-12" gradientUnits="userSpaceOnUse" x1="40.407" y1="97.4" x2="40.407" y2="107.4" gradientTransform="matrix(1, 0, 0, 1, 49.950474, 7.956444)" xlink:href="#gradient-0"></linearGradient>
    </defs>
  </symbol>
  <use id="use4" transform="matrix(1.134866, 0, 0, 1.134866, 0.718214, -2.269762)" transform-box="fill-box" xlink:href="#logo-symbol-wordmark"></use>
</svg>
