<svg width="261" height="66" viewBox="0.35 0.29 307.749 66.239" fill="none" version="1.1" id="svg4" xmlns="http://www.w3.org/2000/svg" xmlns:xlink="http://www.w3.org/1999/xlink">
  <defs></defs>
  <symbol id="logo-symbol-wordmark">
    <g transform-origin="42.2815px 30.3653px" transform="matrix(0, -2.027412, 3.469915, 0, 3.251863, 2.634686)">
      <g transform="matrix(0.707107, 0.707107, -0.707107, 0.707107, -42.718349, -74.634865)" transform-origin="85px 105px">
        <rect x="74.643" y="94.643" width="10" height="10" fill="url('#gradient-0-9')"></rect>
        <rect x="85.61" y="94.39" width="10" height="10" fill="url('#gradient-0-10')"></rect>
        <rect x="74.39" y="105.61" width="10" height="10" fill="url('#gradient-0-11')"></rect>
        <rect x="85.357" y="105.357" width="10" height="10" fill="url('#gradient-0-12')"></rect>
        <line fill="#c9c9cf" stroke="#c9c9cf" stroke-width="0.25px" stroke-linecap="round" x1="90.374" y1="92.285" x2="90.361" y2="118.412"></line>
        <line fill="#c9c9cf" stroke="#c9c9cf" stroke-width="0.25px" stroke-linecap="round" transform-box="fill-box" transform-origin="50% 50%" x1="79.658" y1="91.628" x2="79.645" y2="117.755"></line>
        <line fill="#c9c9cf" stroke="#c9c9cf" stroke-width="0.25px" stroke-linecap="round" transform-origin="104.712px 91.739px" x1="97.71" y1="99.647" x2="71.583" y2="99.66"></line>
        <line fill="#c9c9cf" stroke="#c9c9cf" stroke-width="0.25px" stroke-linecap="round" transform-origin="105.415px 102.452px" x1="98.413" y1="110.36" x2="72.286" y2="110.373"></line>
      </g>
    </g>
    <path d="M 136.173 21.412 L 141.77 21.412 L 141.77 45.531 L 136.173 45.531 L 136.173 43.006 C 133.878 45.152 131.411 46.224 128.769 46.224 C 125.435 46.224 122.678 45.02 120.499 42.61 C 118.336 40.15 117.255 37.08 117.255 33.398 C 117.255 29.783 118.336 26.77 120.499 24.359 C 122.662 21.949 125.369 20.745 128.621 20.745 C 131.427 20.745 133.945 21.9 136.173 24.211 L 136.173 21.412 Z M 122.95 33.398 C 122.95 35.709 123.569 37.591 124.807 39.043 C 126.079 40.513 127.68 41.248 129.611 41.248 C 131.675 41.248 133.342 40.538 134.613 39.118 C 135.885 37.648 136.52 35.784 136.52 33.522 C 136.52 31.26 135.885 29.394 134.613 27.926 C 133.342 26.489 131.691 25.771 129.66 25.771 C 127.746 25.771 126.145 26.497 124.856 27.95 C 123.586 29.42 122.95 31.235 122.95 33.398 Z M 148.802 21.412 L 154.373 21.412 L 154.373 23.567 C 155.396 22.494 156.305 21.76 157.097 21.363 C 157.906 20.95 158.864 20.745 159.969 20.745 C 161.439 20.745 162.974 21.223 164.575 22.18 L 162.025 27.281 C 160.968 26.522 159.936 26.143 158.93 26.143 C 155.893 26.143 154.373 28.437 154.373 33.027 L 154.373 45.531 L 148.802 45.531 L 148.802 21.412 Z M 191.096 44.961 C 191.096 46.101 191.055 47.1 190.972 47.958 C 190.906 48.833 190.806 49.6 190.674 50.26 C 190.278 52.077 189.503 53.637 188.347 54.941 C 186.168 57.451 183.172 58.705 179.358 58.705 C 176.139 58.705 173.49 57.838 171.41 56.105 C 169.264 54.322 168.025 51.853 167.695 48.701 L 173.292 48.701 C 173.507 49.89 173.861 50.806 174.356 51.45 C 175.512 52.951 177.196 53.703 179.407 53.703 C 183.485 53.703 185.524 51.202 185.524 46.2 L 185.524 42.832 C 183.312 45.093 180.762 46.224 177.873 46.224 C 174.588 46.224 171.896 45.036 169.801 42.659 C 167.687 40.249 166.63 37.236 166.63 33.621 C 166.63 30.104 167.613 27.116 169.577 24.657 C 171.691 22.048 174.48 20.745 177.947 20.745 C 180.985 20.745 183.511 21.876 185.524 24.137 L 185.524 21.412 L 191.096 21.412 L 191.096 44.961 Z M 185.747 33.522 C 185.747 31.178 185.12 29.304 183.865 27.901 C 182.594 26.464 180.968 25.747 178.987 25.747 C 176.874 25.747 175.206 26.531 173.985 28.099 C 172.879 29.502 172.326 31.317 172.326 33.546 C 172.326 35.742 172.879 37.542 173.985 38.944 C 175.19 40.48 176.858 41.248 178.987 41.248 C 181.117 41.248 182.8 40.472 184.039 38.92 C 185.177 37.516 185.747 35.718 185.747 33.522 Z M 205.73 41.05 L 194.884 21.412 L 201.347 21.412 L 208.726 35.28 L 215.611 21.412 L 221.9 21.412 L 202.685 58.655 L 196.321 58.655 L 205.73 41.05 Z M 231.706 3.708 L 231.706 45.531 L 226.134 45.531 L 226.134 3.708 L 231.706 3.708 Z M 260.727 34.785 L 243.443 34.785 C 243.592 36.766 244.235 38.342 245.374 39.514 C 246.514 40.67 247.974 41.248 249.758 41.248 C 251.144 41.248 252.291 40.918 253.2 40.257 C 254.091 39.596 255.106 38.375 256.245 36.592 L 260.95 39.217 C 260.224 40.455 259.456 41.519 258.647 42.412 C 257.838 43.286 256.972 44.012 256.047 44.591 C 255.123 45.152 254.124 45.564 253.05 45.828 C 251.978 46.092 250.814 46.224 249.56 46.224 C 245.96 46.224 243.071 45.069 240.892 42.758 C 238.713 40.43 237.624 37.344 237.624 33.497 C 237.624 29.684 238.68 26.597 240.793 24.236 C 242.923 21.909 245.746 20.745 249.262 20.745 C 252.811 20.745 255.618 21.876 257.681 24.137 C 259.729 26.381 260.752 29.493 260.752 33.472 L 260.727 34.785 Z M 255.007 30.228 C 254.231 27.257 252.357 25.771 249.386 25.771 C 248.709 25.771 248.073 25.879 247.479 26.093 C 246.885 26.291 246.34 26.588 245.845 26.984 C 245.366 27.364 244.954 27.827 244.607 28.371 C 244.261 28.916 243.996 29.535 243.814 30.228 L 255.007 30.228 Z" id="text21" fill="#c9c9cf" stroke="#c9c9cf" stroke-linejoin="round" aria-label="argyle"></path>
    <defs id="defs5">
      <linearGradient id="gradient-0">
        <stop stop-color="#6364FF" offset="0"></stop>
        <stop stop-color="#563ACC" offset="1"></stop>
      </linearGradient>
      <linearGradient id="gradient-0-9" gradientUnits="userSpaceOnUse" x1="40.407" y1="97.4" x2="40.407" y2="107.4" gradientTransform="matrix(1, 0, 0, 1, 39.237117, -2.756915)" xlink:href="#gradient-0"></linearGradient>
      <linearGradient id="gradient-0-10" gradientUnits="userSpaceOnUse" x1="40.407" y1="97.4" x2="40.407" y2="107.4" gradientTransform="matrix(1, 0, 0, 1, 50.204251, -3.010692)" xlink:href="#gradient-0"></linearGradient>
      <linearGradient id="gradient-0-11" gradientUnits="userSpaceOnUse" x1="40.407" y1="97.4" x2="40.407" y2="107.4" gradientTransform="matrix(1, 0, 0, 1, 38.98334, 8.21022)" xlink:href="#gradient-0"></linearGradient>
      <linearGradient id="gradient-0-12" gradientUnits="userSpaceOnUse" x1="40.407" y1="97.4" x2="40.407" y2="107.4" gradientTransform="matrix(1, 0, 0, 1, 49.950474, 7.956444)" xlink:href="#gradient-0"></linearGradient>
    </defs>
  </symbol>
  <use id="use4" transform="matrix(1.1348659992218018, 0, 0, 1.1348659992218018, -3.2817859649658203, -2.2697620391845703)" transform-box="fill-box" xlink:href="#logo-symbol-wordmark"></use>
</svg>
