<svg width="261" height="66" viewBox="0.112 0.29 273.916 66.335" fill="none" version="1.1" id="svg4" xmlns="http://www.w3.org/2000/svg" xmlns:xlink="http://www.w3.org/1999/xlink">
  <defs id="defs5"></defs>
  <symbol id="logo-symbol-wordmark">
    <g transform="matrix(0.904306, 0, 0, 0.904306, -40.331215, 23.546415)" style="">
      <rect x="-251.294" y="576.865" width="11.677" height="8.781" transform="matrix(0.412848, 0.9108, -0.548968, 1.211099, 493.134033, -495.193268)" fill="url(#gradient-1-74)"></rect>
      <rect x="-239.617" y="576.865" width="11.677" height="8.781" transform="matrix(0.412848, 0.9108, -0.548968, 1.211099, 493.134033, -495.193268)" fill="url(#gradient-0-65)"></rect>
      <rect x="-227.941" y="576.865" width="11.677" height="8.781" transform="matrix(0.412848, 0.9108, -0.548968, 1.211099, 493.134033, -495.193268)" fill="url(#gradient-1-75)"></rect>
      <rect x="-216.264" y="576.865" width="11.677" height="8.781" fill="url(#gradient-106-90)" transform="matrix(0.412848, 0.9108, -0.548968, 1.211099, 493.134033, -495.193268)"></rect>
      <rect x="-204.588" y="576.865" width="11.677" height="8.781" transform="matrix(0.412848, 0.9108, -0.548968, 1.211099, 493.134033, -495.193268)" fill="url(#gradient-99-42)"></rect>
      <rect x="-251.294" y="585.647" width="11.677" height="8.781" transform="matrix(0.412848, 0.9108, -0.548968, 1.211099, 493.134033, -495.193268)" fill="url(#gradient-0-66)"></rect>
      <rect x="-227.941" y="585.647" width="11.677" height="8.781" fill="url(#gradient-106-91)" transform="matrix(0.412848, 0.9108, -0.548968, 1.211099, 493.134033, -495.193268)"></rect>
      <rect x="-251.294" y="594.428" width="11.677" height="8.781" transform="matrix(0.412848, 0.9108, -0.548968, 1.211099, 493.134033, -495.193268)" fill="url(#gradient-1-76)"></rect>
      <rect x="-239.617" y="594.428" width="11.677" height="8.781" fill="url(#gradient-106-92)" transform="matrix(0.412848, 0.9108, -0.548968, 1.211099, 493.134033, -495.193268)"></rect>
      <rect x="-227.941" y="594.428" width="11.677" height="8.781" transform="matrix(0.412848, 0.9108, -0.548968, 1.211099, 493.134033, -495.193268)" fill="url(#gradient-0-67)"></rect>
      <rect x="-251.294" y="603.209" width="11.677" height="8.781" fill="url(#gradient-106-93)" transform="matrix(0.412848, 0.9108, -0.548968, 1.211099, 493.134033, -495.193268)"></rect>
      <rect x="-251.294" y="611.991" width="11.677" height="8.781" transform="matrix(0.412848, 0.9108, -0.548968, 1.211099, 493.134033, -495.193268)" fill="url(#gradient-99-45)"></rect>
      <line style="fill: rgb(216, 216, 216); stroke-linecap: round; stroke: rgb(235, 235, 235); stroke-width: 1.10582px;" x1="67.82" y1="-14.957" x2="92.001" y2="38.394"></line>
      <line style="fill: rgb(216, 216, 216); stroke-linecap: round; stroke: rgb(235, 235, 235); stroke-width: 1.10582px;" x1="58.175" y1="6.333" x2="72.706" y2="38.394"></line>
      <line style="fill: rgb(216, 216, 216); stroke-linecap: round; stroke: rgb(235, 235, 235); stroke-width: 1.10582px;" x1="48.53" y1="27.56" x2="53.441" y2="38.394"></line>
    </g>
    <path d="M 88.452 18.802 L 93.54 18.802 L 93.54 40.727 L 88.452 40.727 L 88.452 38.431 C 86.366 40.382 84.123 41.357 81.722 41.357 C 78.691 41.357 76.185 40.262 74.204 38.071 C 72.238 35.835 71.255 33.044 71.255 29.697 C 71.255 26.411 72.238 23.672 74.204 21.481 C 76.17 19.29 78.631 18.195 81.587 18.195 C 84.138 18.195 86.427 19.245 88.452 21.346 L 88.452 18.802 Z M 76.432 29.697 C 76.432 31.798 76.995 33.509 78.12 34.829 C 79.276 36.165 80.732 36.833 82.487 36.833 C 84.363 36.833 85.879 36.188 87.034 34.897 C 88.19 33.561 88.768 31.866 88.768 29.81 C 88.768 27.754 88.19 26.058 87.034 24.723 C 85.879 23.417 84.378 22.764 82.532 22.764 C 80.792 22.764 79.336 23.424 78.165 24.745 C 77.01 26.081 76.432 27.731 76.432 29.697 Z M 99.932 18.802 L 104.997 18.802 L 104.997 20.761 C 105.927 19.785 106.753 19.118 107.473 18.757 C 108.208 18.382 109.079 18.195 110.084 18.195 C 111.42 18.195 112.815 18.63 114.271 19.5 L 111.953 24.137 C 110.992 23.447 110.054 23.102 109.139 23.102 C 106.378 23.102 104.997 25.188 104.997 29.36 L 104.997 40.727 L 99.932 40.727 L 99.932 18.802 Z M 138.379 40.209 C 138.379 41.245 138.342 42.153 138.267 42.933 C 138.207 43.728 138.116 44.426 137.996 45.026 C 137.636 46.677 136.931 48.095 135.88 49.281 C 133.9 51.562 131.176 52.702 127.709 52.702 C 124.783 52.702 122.375 51.914 120.484 50.339 C 118.533 48.718 117.407 46.474 117.107 43.608 L 122.195 43.608 C 122.39 44.689 122.712 45.522 123.162 46.107 C 124.213 47.472 125.744 48.155 127.754 48.155 C 131.461 48.155 133.314 45.882 133.314 41.335 L 133.314 38.273 C 131.303 40.329 128.985 41.357 126.359 41.357 C 123.373 41.357 120.926 40.277 119.021 38.116 C 117.1 35.925 116.139 33.186 116.139 29.9 C 116.139 26.703 117.032 23.987 118.818 21.751 C 120.739 19.38 123.275 18.195 126.426 18.195 C 129.188 18.195 131.484 19.223 133.314 21.279 L 133.314 18.802 L 138.379 18.802 L 138.379 40.209 Z M 133.517 29.81 C 133.517 27.679 132.947 25.976 131.806 24.7 C 130.651 23.394 129.173 22.742 127.372 22.742 C 125.451 22.742 123.935 23.455 122.825 24.88 C 121.819 26.156 121.317 27.806 121.317 29.832 C 121.317 31.828 121.819 33.464 122.825 34.739 C 123.92 36.135 125.436 36.833 127.372 36.833 C 129.308 36.833 130.838 36.128 131.964 34.717 C 132.999 33.441 133.517 31.806 133.517 29.81 Z M 151.682 36.653 L 141.823 18.802 L 147.698 18.802 L 154.406 31.408 L 160.664 18.802 L 166.381 18.802 L 148.914 52.657 L 143.129 52.657 L 151.682 36.653 Z M 175.295 2.708 L 175.295 40.727 L 170.23 40.727 L 170.23 2.708 L 175.295 2.708 Z M 201.677 30.958 L 185.965 30.958 C 186.1 32.759 186.685 34.192 187.72 35.257 C 188.756 36.308 190.084 36.833 191.705 36.833 C 192.965 36.833 194.008 36.533 194.834 35.932 C 195.644 35.332 196.567 34.222 197.602 32.601 L 201.879 34.987 C 201.219 36.112 200.521 37.08 199.786 37.891 C 199.05 38.686 198.263 39.346 197.422 39.872 C 196.582 40.382 195.674 40.757 194.698 40.997 C 193.723 41.237 192.665 41.357 191.525 41.357 C 188.253 41.357 185.627 40.307 183.646 38.206 C 181.665 36.09 180.675 33.284 180.675 29.787 C 180.675 26.321 181.635 23.515 183.556 21.369 C 185.492 19.253 188.058 18.195 191.254 18.195 C 194.481 18.195 197.032 19.223 198.908 21.279 C 200.769 23.319 201.699 26.148 201.699 29.765 L 201.677 30.958 Z M 196.477 26.816 C 195.771 24.115 194.068 22.764 191.367 22.764 C 190.752 22.764 190.174 22.862 189.634 23.057 C 189.094 23.237 188.598 23.507 188.148 23.867 C 187.713 24.212 187.338 24.633 187.023 25.128 C 186.708 25.623 186.467 26.186 186.302 26.816 L 196.477 26.816 Z" id="text21" fill="#615ef9" stroke="#615ef9" stroke-linejoin="round" aria-label="argyle"></path>
    <defs id="defs6">
      <linearGradient id="gradient-1-74" gradientUnits="userSpaceOnUse" x1="-210.212" y1="656.925" x2="-210.212" y2="666.925" gradientTransform="matrix(1.167657, 0, 0, 0.87813, 0, 0)" xlink:href="#gradient-1"></linearGradient>
      <linearGradient id="gradient-1">
        <stop stop-color="#6363ff" offset="0"></stop>
        <stop stop-color="#563acc" offset="1"></stop>
      </linearGradient>
      <linearGradient id="gradient-0-65" gradientUnits="userSpaceOnUse" x1="-200.212" y1="656.925" x2="-200.212" y2="666.925" gradientTransform="matrix(1.167657, 0, 0, 0.87813, 0, 0)" xlink:href="#gradient-0"></linearGradient>
      <linearGradient id="gradient-0">
        <stop stop-color="#5c4de3" offset="0"></stop>
        <stop stop-color="#1f26b3" offset="1"></stop>
      </linearGradient>
      <linearGradient id="gradient-1-75" gradientUnits="userSpaceOnUse" x1="-190.212" y1="656.925" x2="-190.212" y2="666.925" gradientTransform="matrix(1.167657, 0, 0, 0.87813, 0, 0)" xlink:href="#gradient-1"></linearGradient>
      <linearGradient id="gradient-106-90" gradientUnits="userSpaceOnUse" x1="-180.212" y1="656.925" x2="-180.212" y2="666.925" gradientTransform="matrix(1.167657, 0, 0, 0.87813, 0, 0)" xlink:href="#gradient-106"></linearGradient>
      <linearGradient id="gradient-106">
        <stop stop-color="#4a3ade" offset="0"></stop>
        <stop stop-color="#131cb3" offset="1"></stop>
      </linearGradient>
      <linearGradient id="gradient-99-42" gradientUnits="userSpaceOnUse" x1="-170.212" y1="656.925" x2="-170.212" y2="666.925" gradientTransform="matrix(1.167657, 0, 0, 0.87813, 0, 0)" xlink:href="#gradient-99"></linearGradient>
      <linearGradient id="gradient-99">
        <stop stop-color="#3b2ad8" offset="0"></stop>
        <stop stop-color="#0d1583" offset="1"></stop>
      </linearGradient>
      <linearGradient id="gradient-0-66" gradientUnits="userSpaceOnUse" x1="-210.212" y1="666.925" x2="-210.212" y2="676.925" gradientTransform="matrix(1.167657, 0, 0, 0.87813, 0, 0)" xlink:href="#gradient-0"></linearGradient>
      <linearGradient id="gradient-106-91" gradientUnits="userSpaceOnUse" x1="-190.212" y1="666.925" x2="-190.212" y2="676.925" gradientTransform="matrix(1.167657, 0, 0, 0.87813, 0, 0)" xlink:href="#gradient-106"></linearGradient>
      <linearGradient id="gradient-1-76" gradientUnits="userSpaceOnUse" x1="-210.212" y1="676.925" x2="-210.212" y2="686.925" gradientTransform="matrix(1.167657, 0, 0, 0.87813, 0, 0)" xlink:href="#gradient-1"></linearGradient>
      <linearGradient id="gradient-106-92" gradientUnits="userSpaceOnUse" x1="-200.212" y1="676.925" x2="-200.212" y2="686.925" gradientTransform="matrix(1.167657, 0, 0, 0.87813, 0, 0)" xlink:href="#gradient-106"></linearGradient>
      <linearGradient id="gradient-0-67" gradientUnits="userSpaceOnUse" x1="-190.212" y1="676.925" x2="-190.212" y2="686.925" gradientTransform="matrix(1.167657, 0, 0, 0.87813, 0, 0)" xlink:href="#gradient-0"></linearGradient>
      <linearGradient id="gradient-106-93" gradientUnits="userSpaceOnUse" x1="-210.212" y1="686.925" x2="-210.212" y2="696.925" gradientTransform="matrix(1.167657, 0, 0, 0.87813, 0, 0)" xlink:href="#gradient-106"></linearGradient>
      <linearGradient id="gradient-99-45" gradientUnits="userSpaceOnUse" x1="-210.212" y1="696.925" x2="-210.212" y2="706.925" gradientTransform="matrix(1.167657, 0, 0, 0.87813, 0, 0)" xlink:href="#gradient-99"></linearGradient>
    </defs>
  </symbol>
  <use id="use4" transform="matrix(1.1348659992218018, 0, 0, 1.1348659992218018, -3.2817859649658203, -0.26976197957992554)" style="transform-box: fill-box;" xlink:href="#logo-symbol-wordmark"></use>
</svg>
