<?xml version="1.0" encoding="utf-8"?>
<svg width="261" height="66" viewBox="0.112 0 224.167 65.983" fill="none" version="1.1" id="svg4" xmlns="http://www.w3.org/2000/svg" xmlns:xlink="http://www.w3.org/1999/xlink">
  <defs id="defs5"/>
  <symbol id="logo-symbol-wordmark">
    <g transform="matrix(0.904306, 0, 0, 0.904306, -40.331215, 23.546415)" style="">
      <rect x="-251.294" y="576.865" width="11.677" height="8.781" transform="matrix(0.412848, 0.9108, -0.548968, 1.211099, 493.134033, -495.193268)" fill="url(#gradient-1-74)"/>
      <rect x="-239.617" y="576.865" width="11.677" height="8.781" transform="matrix(0.412848, 0.9108, -0.548968, 1.211099, 493.134033, -495.193268)" fill="url(#gradient-0-65)"/>
      <rect x="-227.941" y="576.865" width="11.677" height="8.781" transform="matrix(0.412848, 0.9108, -0.548968, 1.211099, 493.134033, -495.193268)" fill="url(#gradient-1-75)"/>
      <rect x="-216.264" y="576.865" width="11.677" height="8.781" fill="url(#gradient-106-90)" transform="matrix(0.412848, 0.9108, -0.548968, 1.211099, 493.134033, -495.193268)"/>
      <rect x="-204.588" y="576.865" width="11.677" height="8.781" transform="matrix(0.412848, 0.9108, -0.548968, 1.211099, 493.134033, -495.193268)" fill="url(#gradient-99-42)"/>
      <rect x="-251.294" y="585.647" width="11.677" height="8.781" transform="matrix(0.412848, 0.9108, -0.548968, 1.211099, 493.134033, -495.193268)" fill="url(#gradient-0-66)"/>
      <rect x="-227.941" y="585.647" width="11.677" height="8.781" fill="url(#gradient-106-91)" transform="matrix(0.412848, 0.9108, -0.548968, 1.211099, 493.134033, -495.193268)"/>
      <rect x="-251.294" y="594.428" width="11.677" height="8.781" transform="matrix(0.412848, 0.9108, -0.548968, 1.211099, 493.134033, -495.193268)" fill="url(#gradient-1-76)"/>
      <rect x="-239.617" y="594.428" width="11.677" height="8.781" fill="url(#gradient-106-92)" transform="matrix(0.412848, 0.9108, -0.548968, 1.211099, 493.134033, -495.193268)"/>
      <rect x="-227.941" y="594.428" width="11.677" height="8.781" transform="matrix(0.412848, 0.9108, -0.548968, 1.211099, 493.134033, -495.193268)" fill="url(#gradient-0-67)"/>
      <rect x="-251.294" y="603.209" width="11.677" height="8.781" fill="url(#gradient-106-93)" transform="matrix(0.412848, 0.9108, -0.548968, 1.211099, 493.134033, -495.193268)"/>
      <rect x="-251.294" y="611.991" width="11.677" height="8.781" transform="matrix(0.412848, 0.9108, -0.548968, 1.211099, 493.134033, -495.193268)" fill="url(#gradient-99-45)"/>
    </g>
    <path
     d="m 91.671669,22.799485 h 6.035677 v 26.012167 h -6.035677 v -2.724067 q -3.712209,3.47185 -7.985255,3.47185 -5.39472,0 -8.919983,-3.899155 -3.498556,-3.979273 -3.498556,-9.934831 0,-5.848731 3.498556,-9.747886 3.498557,-3.899154 8.759744,-3.899154 4.540111,0 8.145494,3.738916 z m -14.26129,12.925964 q 0,3.738914 2.002989,6.089091 2.056404,2.376881 5.181069,2.376881 3.338316,0 5.394719,-2.296763 2.056404,-2.37688 2.056404,-6.035676 0,-3.658796 -2.056404,-6.035678 -2.056403,-2.323468 -5.341307,-2.323468 -3.097957,0 -5.181067,2.350174 -2.056403,2.376882 -2.056403,5.875439 z M 105.292,22.799485 h 6.00898 v 2.32347 q 1.6558,-1.735926 2.93771,-2.376882 1.30863,-0.667664 3.09797,-0.667664 2.37689,0 4.96742,1.548979 l -2.75078,5.501546 q -1.70921,-1.2285 -3.33831,-1.2285 -4.91401,0 -4.91401,7.424417 V 48.811652 H 105.292 Z m 45.61477,25.397916 q 0,1.842751 -0.13352,3.23149 -0.10683,1.415447 -0.32048,2.483708 -0.64096,2.937719 -2.51042,5.047537 -3.52526,4.059393 -9.69446,4.059393 -5.20779,0 -8.57281,-2.804187 -3.47185,-2.884306 -4.00598,-7.985254 h 6.03567 q 0.34719,1.92287 1.14839,2.964426 1.86946,2.430294 5.44813,2.430294 6.59653,0 6.59653,-8.092079 v -3.63209 q -3.57869,3.658796 -8.25234,3.658796 -5.31459,0 -8.70632,-3.845743 -3.41844,-3.899152 -3.41844,-9.747884 0,-5.688493 3.17808,-9.667766 3.41843,-4.219633 9.02681,-4.219633 4.914,0 8.17221,3.658795 v -2.937719 h 6.00895 z m -5.7686,-12.338419 q 0,-3.792328 -2.02971,-6.062384 -2.0564,-2.323468 -5.26118,-2.323468 -3.41844,0 -5.39472,2.537121 -1.78934,2.270055 -1.78934,5.875437 0,3.55197 1.78934,5.822025 1.94958,2.483708 5.39472,2.483708 3.44514,0 5.44813,-2.510414 1.84276,-2.270056 1.84276,-5.822025 z m 21.55218,8.118787 -11.69747,-21.178284 h 6.97041 l 7.95854,14.955661 7.42443,-14.955661 h 6.78346 l -20.72428,40.166631 h -6.86358 z M 194.7055,3.7043113 V 48.811652 h -6.00897 V 3.7043113 Z M 226.00556,37.221014 H 207.3644 q 0.24035,3.204785 2.0831,5.100949 1.84276,1.869458 4.72707,1.869458 2.24334,0 3.7122,-1.068262 1.44217,-1.06826 3.28491,-3.952567 l 5.07425,2.830892 q -1.1751,2.002991 -2.48372,3.445144 -1.30861,1.415446 -2.80418,2.350175 -1.49556,0.908023 -3.2315,1.335326 -1.73591,0.427306 -3.76562,0.427306 -5.82203,0 -9.34728,-3.738914 -3.52526,-3.765622 -3.52526,-9.988246 0,-6.169209 3.41843,-9.988245 3.44515,-3.765621 9.13364,-3.765621 5.7419,0 9.08022,3.658795 3.31161,3.632089 3.31161,10.068365 z m -6.16921,-4.914002 q -1.2552,-4.807176 -6.06237,-4.807176 -1.09498,0 -2.05642,0.347185 -0.96143,0.320478 -1.76262,0.961435 -0.77449,0.614251 -1.33533,1.495566 -0.56083,0.881316 -0.8546,2.00299 z"
     id="text19"
     fill="#595aff"
     aria-label="argyle" />
    <defs id="defs6">
      <linearGradient id="gradient-1-74" gradientUnits="userSpaceOnUse" x1="-210.212" y1="656.925" x2="-210.212" y2="666.925" gradientTransform="matrix(1.167657, 0, 0, 0.87813, 0, 0)" xlink:href="#gradient-1"/>
      <linearGradient id="gradient-1">
        <stop stop-color="#6363ff" offset="0"/>
        <stop stop-color="#563acc" offset="1"/>
      </linearGradient>
      <linearGradient id="gradient-0-65" gradientUnits="userSpaceOnUse" x1="-200.212" y1="656.925" x2="-200.212" y2="666.925" gradientTransform="matrix(1.167657, 0, 0, 0.87813, 0, 0)" xlink:href="#gradient-0"/>
      <linearGradient id="gradient-0">
        <stop stop-color="#5c4de3" offset="0"/>
        <stop stop-color="#1f26b3" offset="1"/>
      </linearGradient>
      <linearGradient id="gradient-1-75" gradientUnits="userSpaceOnUse" x1="-190.212" y1="656.925" x2="-190.212" y2="666.925" gradientTransform="matrix(1.167657, 0, 0, 0.87813, 0, 0)" xlink:href="#gradient-1"/>
      <linearGradient id="gradient-106-90" gradientUnits="userSpaceOnUse" x1="-180.212" y1="656.925" x2="-180.212" y2="666.925" gradientTransform="matrix(1.167657, 0, 0, 0.87813, 0, 0)" xlink:href="#gradient-106"/>
      <linearGradient id="gradient-106">
        <stop stop-color="#4a3ade" offset="0"/>
        <stop stop-color="#131cb3" offset="1"/>
      </linearGradient>
      <linearGradient id="gradient-99-42" gradientUnits="userSpaceOnUse" x1="-170.212" y1="656.925" x2="-170.212" y2="666.925" gradientTransform="matrix(1.167657, 0, 0, 0.87813, 0, 0)" xlink:href="#gradient-99"/>
      <linearGradient id="gradient-99">
        <stop stop-color="#3b2ad8" offset="0"/>
        <stop stop-color="#0d1583" offset="1"/>
      </linearGradient>
      <linearGradient id="gradient-0-66" gradientUnits="userSpaceOnUse" x1="-210.212" y1="666.925" x2="-210.212" y2="676.925" gradientTransform="matrix(1.167657, 0, 0, 0.87813, 0, 0)" xlink:href="#gradient-0"/>
      <linearGradient id="gradient-106-91" gradientUnits="userSpaceOnUse" x1="-190.212" y1="666.925" x2="-190.212" y2="676.925" gradientTransform="matrix(1.167657, 0, 0, 0.87813, 0, 0)" xlink:href="#gradient-106"/>
      <linearGradient id="gradient-1-76" gradientUnits="userSpaceOnUse" x1="-210.212" y1="676.925" x2="-210.212" y2="686.925" gradientTransform="matrix(1.167657, 0, 0, 0.87813, 0, 0)" xlink:href="#gradient-1"/>
      <linearGradient id="gradient-106-92" gradientUnits="userSpaceOnUse" x1="-200.212" y1="676.925" x2="-200.212" y2="686.925" gradientTransform="matrix(1.167657, 0, 0, 0.87813, 0, 0)" xlink:href="#gradient-106"/>
      <linearGradient id="gradient-0-67" gradientUnits="userSpaceOnUse" x1="-190.212" y1="676.925" x2="-190.212" y2="686.925" gradientTransform="matrix(1.167657, 0, 0, 0.87813, 0, 0)" xlink:href="#gradient-0"/>
      <linearGradient id="gradient-106-93" gradientUnits="userSpaceOnUse" x1="-210.212" y1="686.925" x2="-210.212" y2="696.925" gradientTransform="matrix(1.167657, 0, 0, 0.87813, 0, 0)" xlink:href="#gradient-106"/>
      <linearGradient id="gradient-99-45" gradientUnits="userSpaceOnUse" x1="-210.212" y1="696.925" x2="-210.212" y2="706.925" gradientTransform="matrix(1.167657, 0, 0, 0.87813, 0, 0)" xlink:href="#gradient-99"/>
    </defs>
  </symbol>
  <use id="use4" transform="matrix(1.134866, 0, 0, 1.134866, -3.281786, -0.269762)" style="transform-box: fill-box;" xlink:href="#logo-symbol-wordmark"/>
</svg>
