<svg width="261" height="66" viewBox="0.35 0.29 307.749 66.239" fill="none" version="1.1" id="svg4" xmlns="http://www.w3.org/2000/svg" xmlns:xlink="http://www.w3.org/1999/xlink">
  <defs id="defs5"></defs>
  <symbol id="logo-symbol-wordmark">
    <g transform="matrix(0.941583, 0, 0, 0.904306, -18.140242, 23.546415)" style="">
      <rect x="-251.294" y="576.865" width="11.677" height="8.781" transform="matrix(0.412848, 0.9108, -0.548968, 1.211099, 493.134033, -495.193268)" fill="url(#gradient-1-74)"></rect>
      <rect x="-239.617" y="576.865" width="11.677" height="8.781" transform="matrix(0.412848, 0.9108, -0.548968, 1.211099, 493.134033, -495.193268)" fill="url(#gradient-0-65)"></rect>
      <rect x="-227.941" y="576.865" width="11.677" height="8.781" transform="matrix(0.412848, 0.9108, -0.548968, 1.211099, 493.134033, -495.193268)" fill="url(#gradient-1-75)"></rect>
      <rect x="-216.264" y="576.865" width="11.677" height="8.781" fill="url(#gradient-106-90)" transform="matrix(0.412848, 0.9108, -0.548968, 1.211099, 493.134033, -495.193268)"></rect>
      <rect x="-204.588" y="576.865" width="11.677" height="8.781" transform="matrix(0.412848, 0.9108, -0.548968, 1.211099, 493.134033, -495.193268)" fill="url(#gradient-99-42)"></rect>
      <rect x="-251.294" y="585.647" width="11.677" height="8.781" transform="matrix(0.412848, 0.9108, -0.548968, 1.211099, 493.134033, -495.193268)" fill="url(#gradient-0-66)"></rect>
      <rect x="-227.941" y="585.647" width="11.677" height="8.781" fill="url(#gradient-106-91)" transform="matrix(0.412848, 0.9108, -0.548968, 1.211099, 493.134033, -495.193268)"></rect>
      <rect x="-251.294" y="594.428" width="11.677" height="8.781" transform="matrix(0.412848, 0.9108, -0.548968, 1.211099, 493.134033, -495.193268)" fill="url(#gradient-1-76)"></rect>
      <rect x="-239.617" y="594.428" width="11.677" height="8.781" fill="url(#gradient-106-92)" transform="matrix(0.412848, 0.9108, -0.548968, 1.211099, 493.134033, -495.193268)"></rect>
      <rect x="-227.941" y="594.428" width="11.677" height="8.781" transform="matrix(0.412848, 0.9108, -0.548968, 1.211099, 493.134033, -495.193268)" fill="url(#gradient-0-67)"></rect>
      <rect x="-251.294" y="603.209" width="11.677" height="8.781" fill="url(#gradient-106-93)" transform="matrix(0.412848, 0.9108, -0.548968, 1.211099, 493.134033, -495.193268)"></rect>
      <rect x="-251.294" y="611.991" width="11.677" height="8.781" transform="matrix(0.412848, 0.9108, -0.548968, 1.211099, 493.134033, -495.193268)" fill="url(#gradient-99-45)"></rect>
      <line style="fill: rgb(216, 216, 216); stroke-linecap: round; stroke: rgb(235, 235, 235); stroke-width: 0.774074px;" x1="67.82" y1="-14.957" x2="92.001" y2="38.394"></line>
      <line style="fill: rgb(216, 216, 216); stroke-linecap: round; stroke: rgb(235, 235, 235); stroke-width: 0.774074px;" x1="58.175" y1="6.333" x2="72.706" y2="38.394"></line>
      <line style="fill: rgb(216, 216, 216); stroke-linecap: round; stroke: rgb(235, 235, 235); stroke-width: 0.774074px;" x1="48.53" y1="27.56" x2="53.441" y2="38.394"></line>
    </g>
    <path d="M 108.173 19.412 L 113.77 19.412 L 113.77 43.531 L 108.173 43.531 L 108.173 41.006 C 105.878 43.152 103.411 44.224 100.769 44.224 C 97.435 44.224 94.678 43.02 92.499 40.61 C 90.336 38.15 89.255 35.08 89.255 31.398 C 89.255 27.783 90.336 24.77 92.499 22.359 C 94.662 19.949 97.369 18.745 100.621 18.745 C 103.427 18.745 105.945 19.9 108.173 22.211 L 108.173 19.412 Z M 94.95 31.398 C 94.95 33.709 95.569 35.591 96.807 37.043 C 98.079 38.513 99.68 39.248 101.611 39.248 C 103.675 39.248 105.342 38.538 106.613 37.118 C 107.885 35.648 108.52 33.784 108.52 31.522 C 108.52 29.26 107.885 27.394 106.613 25.926 C 105.342 24.489 103.691 23.771 101.66 23.771 C 99.746 23.771 98.145 24.497 96.856 25.95 C 95.586 27.42 94.95 29.235 94.95 31.398 Z M 120.802 19.412 L 126.373 19.412 L 126.373 21.567 C 127.396 20.494 128.305 19.76 129.097 19.363 C 129.906 18.95 130.864 18.745 131.969 18.745 C 133.439 18.745 134.974 19.223 136.575 20.18 L 134.025 25.281 C 132.968 24.522 131.936 24.143 130.93 24.143 C 127.893 24.143 126.373 26.437 126.373 31.027 L 126.373 43.531 L 120.802 43.531 L 120.802 19.412 Z M 163.096 42.961 C 163.096 44.101 163.055 45.1 162.972 45.958 C 162.906 46.833 162.806 47.6 162.674 48.26 C 162.278 50.077 161.503 51.637 160.347 52.941 C 158.168 55.451 155.172 56.705 151.358 56.705 C 148.139 56.705 145.49 55.838 143.41 54.105 C 141.264 52.322 140.025 49.853 139.695 46.701 L 145.292 46.701 C 145.507 47.89 145.861 48.806 146.356 49.45 C 147.512 50.951 149.196 51.703 151.407 51.703 C 155.485 51.703 157.524 49.202 157.524 44.2 L 157.524 40.832 C 155.312 43.093 152.762 44.224 149.873 44.224 C 146.588 44.224 143.896 43.036 141.801 40.659 C 139.687 38.249 138.63 35.236 138.63 31.621 C 138.63 28.104 139.613 25.116 141.577 22.657 C 143.691 20.048 146.48 18.745 149.947 18.745 C 152.985 18.745 155.511 19.876 157.524 22.137 L 157.524 19.412 L 163.096 19.412 L 163.096 42.961 Z M 157.747 31.522 C 157.747 29.178 157.12 27.304 155.865 25.901 C 154.594 24.464 152.968 23.747 150.987 23.747 C 148.874 23.747 147.206 24.531 145.985 26.099 C 144.879 27.502 144.326 29.317 144.326 31.546 C 144.326 33.742 144.879 35.542 145.985 36.944 C 147.19 38.48 148.858 39.248 150.987 39.248 C 153.117 39.248 154.8 38.472 156.039 36.92 C 157.177 35.516 157.747 33.718 157.747 31.522 Z M 177.73 39.05 L 166.884 19.412 L 173.347 19.412 L 180.726 33.28 L 187.611 19.412 L 193.9 19.412 L 174.685 56.655 L 168.321 56.655 L 177.73 39.05 Z M 203.706 1.708 L 203.706 43.531 L 198.134 43.531 L 198.134 1.708 L 203.706 1.708 Z M 232.727 32.785 L 215.443 32.785 C 215.592 34.766 216.235 36.342 217.374 37.514 C 218.514 38.67 219.974 39.248 221.758 39.248 C 223.144 39.248 224.291 38.918 225.2 38.257 C 226.091 37.596 227.106 36.375 228.245 34.592 L 232.95 37.217 C 232.224 38.455 231.456 39.519 230.647 40.412 C 229.838 41.286 228.972 42.012 228.047 42.591 C 227.123 43.152 226.124 43.564 225.05 43.828 C 223.978 44.092 222.814 44.224 221.56 44.224 C 217.96 44.224 215.071 43.069 212.892 40.758 C 210.713 38.43 209.624 35.344 209.624 31.497 C 209.624 27.684 210.68 24.597 212.793 22.236 C 214.923 19.909 217.746 18.745 221.262 18.745 C 224.811 18.745 227.618 19.876 229.681 22.137 C 231.729 24.381 232.752 27.493 232.752 31.472 L 232.727 32.785 Z M 227.007 28.228 C 226.231 25.257 224.357 23.771 221.386 23.771 C 220.709 23.771 220.073 23.879 219.479 24.093 C 218.885 24.291 218.34 24.588 217.845 24.984 C 217.366 25.364 216.954 25.827 216.607 26.371 C 216.261 26.916 215.996 27.535 215.814 28.228 L 227.007 28.228 Z" id="text21" fill="#c9c9cf" stroke="#c9c9cf" stroke-linejoin="round" aria-label="argyle" style=""></path>
    <defs id="defs6">
      <linearGradient id="gradient-1-74" gradientUnits="userSpaceOnUse" x1="-210.212" y1="656.925" x2="-210.212" y2="666.925" gradientTransform="matrix(1.167657, 0, 0, 0.87813, 0, 0)" xlink:href="#gradient-1"></linearGradient>
      <linearGradient id="gradient-1">
        <stop stop-color="#6363ff" offset="0"></stop>
        <stop stop-color="#563acc" offset="1"></stop>
      </linearGradient>
      <linearGradient id="gradient-0-65" gradientUnits="userSpaceOnUse" x1="-200.212" y1="656.925" x2="-200.212" y2="666.925" gradientTransform="matrix(1.167657, 0, 0, 0.87813, 0, 0)" xlink:href="#gradient-0"></linearGradient>
      <linearGradient id="gradient-0">
        <stop stop-color="#5c4de3" offset="0"></stop>
        <stop stop-color="#1f26b3" offset="1"></stop>
      </linearGradient>
      <linearGradient id="gradient-1-75" gradientUnits="userSpaceOnUse" x1="-190.212" y1="656.925" x2="-190.212" y2="666.925" gradientTransform="matrix(1.167657, 0, 0, 0.87813, 0, 0)" xlink:href="#gradient-1"></linearGradient>
      <linearGradient id="gradient-106-90" gradientUnits="userSpaceOnUse" x1="-180.212" y1="656.925" x2="-180.212" y2="666.925" gradientTransform="matrix(1.167657, 0, 0, 0.87813, 0, 0)" xlink:href="#gradient-106"></linearGradient>
      <linearGradient id="gradient-106">
        <stop stop-color="#4a3ade" offset="0"></stop>
        <stop stop-color="#131cb3" offset="1"></stop>
      </linearGradient>
      <linearGradient id="gradient-99-42" gradientUnits="userSpaceOnUse" x1="-170.212" y1="656.925" x2="-170.212" y2="666.925" gradientTransform="matrix(1.167657, 0, 0, 0.87813, 0, 0)" xlink:href="#gradient-99"></linearGradient>
      <linearGradient id="gradient-99">
        <stop stop-color="#3b2ad8" offset="0"></stop>
        <stop stop-color="#0d1583" offset="1"></stop>
      </linearGradient>
      <linearGradient id="gradient-0-66" gradientUnits="userSpaceOnUse" x1="-210.212" y1="666.925" x2="-210.212" y2="676.925" gradientTransform="matrix(1.167657, 0, 0, 0.87813, 0, 0)" xlink:href="#gradient-0"></linearGradient>
      <linearGradient id="gradient-106-91" gradientUnits="userSpaceOnUse" x1="-190.212" y1="666.925" x2="-190.212" y2="676.925" gradientTransform="matrix(1.167657, 0, 0, 0.87813, 0, 0)" xlink:href="#gradient-106"></linearGradient>
      <linearGradient id="gradient-1-76" gradientUnits="userSpaceOnUse" x1="-210.212" y1="676.925" x2="-210.212" y2="686.925" gradientTransform="matrix(1.167657, 0, 0, 0.87813, 0, 0)" xlink:href="#gradient-1"></linearGradient>
      <linearGradient id="gradient-106-92" gradientUnits="userSpaceOnUse" x1="-200.212" y1="676.925" x2="-200.212" y2="686.925" gradientTransform="matrix(1.167657, 0, 0, 0.87813, 0, 0)" xlink:href="#gradient-106"></linearGradient>
      <linearGradient id="gradient-0-67" gradientUnits="userSpaceOnUse" x1="-190.212" y1="676.925" x2="-190.212" y2="686.925" gradientTransform="matrix(1.167657, 0, 0, 0.87813, 0, 0)" xlink:href="#gradient-0"></linearGradient>
      <linearGradient id="gradient-106-93" gradientUnits="userSpaceOnUse" x1="-210.212" y1="686.925" x2="-210.212" y2="696.925" gradientTransform="matrix(1.167657, 0, 0, 0.87813, 0, 0)" xlink:href="#gradient-106"></linearGradient>
      <linearGradient id="gradient-99-45" gradientUnits="userSpaceOnUse" x1="-210.212" y1="696.925" x2="-210.212" y2="706.925" gradientTransform="matrix(1.167657, 0, 0, 0.87813, 0, 0)" xlink:href="#gradient-99"></linearGradient>
    </defs>
  </symbol>
  <use id="use4" transform="matrix(1.134866, 0, 0, 1.134866, 6.718214, -0.269762)" style="transform-box: fill-box;" xlink:href="#logo-symbol-wordmark"></use>
</svg>
