<svg width="261" height="66" viewBox="0.112 0.29 273.916 66.335" fill="none" version="1.1" id="svg4" xmlns="http://www.w3.org/2000/svg" xmlns:xlink="http://www.w3.org/1999/xlink">
  <defs id="defs5"></defs>
  <symbol id="logo-symbol-wordmark">
    <g transform="matrix(0.904306, 0, 0, 0.904306, -30.331215, 23.546415)" style="">
      <rect x="-251.294" y="576.865" width="11.677" height="8.781" transform="matrix(0.412848, 0.9108, -0.548968, 1.211099, 493.134033, -495.193268)" fill="url(#gradient-1-74)"></rect>
      <rect x="-239.617" y="576.865" width="11.677" height="8.781" transform="matrix(0.412848, 0.9108, -0.548968, 1.211099, 493.134033, -495.193268)" fill="url(#gradient-0-65)"></rect>
      <rect x="-227.941" y="576.865" width="11.677" height="8.781" transform="matrix(0.412848, 0.9108, -0.548968, 1.211099, 493.134033, -495.193268)" fill="url(#gradient-1-75)"></rect>
      <rect x="-216.264" y="576.865" width="11.677" height="8.781" fill="url(#gradient-106-90)" transform="matrix(0.412848, 0.9108, -0.548968, 1.211099, 493.134033, -495.193268)"></rect>
      <rect x="-204.588" y="576.865" width="11.677" height="8.781" transform="matrix(0.412848, 0.9108, -0.548968, 1.211099, 493.134033, -495.193268)" fill="url(#gradient-99-42)"></rect>
      <rect x="-251.294" y="585.647" width="11.677" height="8.781" transform="matrix(0.412848, 0.9108, -0.548968, 1.211099, 493.134033, -495.193268)" fill="url(#gradient-0-66)"></rect>
      <rect x="-227.941" y="585.647" width="11.677" height="8.781" fill="url(#gradient-106-91)" transform="matrix(0.412848, 0.9108, -0.548968, 1.211099, 493.134033, -495.193268)"></rect>
      <rect x="-251.294" y="594.428" width="11.677" height="8.781" transform="matrix(0.412848, 0.9108, -0.548968, 1.211099, 493.134033, -495.193268)" fill="url(#gradient-1-76)"></rect>
      <rect x="-239.617" y="594.428" width="11.677" height="8.781" fill="url(#gradient-106-92)" transform="matrix(0.412848, 0.9108, -0.548968, 1.211099, 493.134033, -495.193268)"></rect>
      <rect x="-227.941" y="594.428" width="11.677" height="8.781" transform="matrix(0.412848, 0.9108, -0.548968, 1.211099, 493.134033, -495.193268)" fill="url(#gradient-0-67)"></rect>
      <rect x="-251.294" y="603.209" width="11.677" height="8.781" fill="url(#gradient-106-93)" transform="matrix(0.412848, 0.9108, -0.548968, 1.211099, 493.134033, -495.193268)"></rect>
      <rect x="-251.294" y="611.991" width="11.677" height="8.781" transform="matrix(0.412848, 0.9108, -0.548968, 1.211099, 493.134033, -495.193268)" fill="url(#gradient-99-45)"></rect>
      <line style="fill: rgb(216, 216, 216); stroke-linecap: round; stroke: rgb(235, 235, 235); stroke-width: 1.10582px;" x1="67.82" y1="-14.957" x2="92.001" y2="38.394"></line>
      <line style="fill: rgb(216, 216, 216); stroke-linecap: round; stroke: rgb(235, 235, 235); stroke-width: 1.10582px;" x1="58.175" y1="6.333" x2="72.706" y2="38.394"></line>
      <line style="fill: rgb(216, 216, 216); stroke-linecap: round; stroke: rgb(235, 235, 235); stroke-width: 1.10582px;" x1="48.53" y1="27.56" x2="53.441" y2="38.394"></line>
    </g>
    <path d="M 101.452 18.802 L 106.54 18.802 L 106.54 40.727 L 101.452 40.727 L 101.452 38.431 C 99.366 40.382 97.123 41.357 94.722 41.357 C 91.691 41.357 89.185 40.262 87.204 38.071 C 85.238 35.835 84.255 33.044 84.255 29.697 C 84.255 26.411 85.238 23.672 87.204 21.481 C 89.17 19.29 91.631 18.195 94.587 18.195 C 97.138 18.195 99.427 19.245 101.452 21.346 L 101.452 18.802 Z M 89.432 29.697 C 89.432 31.798 89.995 33.509 91.12 34.829 C 92.276 36.165 93.732 36.833 95.487 36.833 C 97.363 36.833 98.879 36.188 100.034 34.897 C 101.19 33.561 101.768 31.866 101.768 29.81 C 101.768 27.754 101.19 26.058 100.034 24.723 C 98.879 23.417 97.378 22.764 95.532 22.764 C 93.792 22.764 92.336 23.424 91.165 24.745 C 90.01 26.081 89.432 27.731 89.432 29.697 Z M 112.932 18.802 L 117.997 18.802 L 117.997 20.761 C 118.927 19.785 119.753 19.118 120.473 18.757 C 121.208 18.382 122.079 18.195 123.084 18.195 C 124.42 18.195 125.815 18.63 127.271 19.5 L 124.953 24.137 C 123.992 23.447 123.054 23.102 122.139 23.102 C 119.378 23.102 117.997 25.188 117.997 29.36 L 117.997 40.727 L 112.932 40.727 L 112.932 18.802 Z M 151.379 40.209 C 151.379 41.245 151.342 42.153 151.267 42.933 C 151.207 43.728 151.116 44.426 150.996 45.026 C 150.636 46.677 149.931 48.095 148.88 49.281 C 146.9 51.562 144.176 52.702 140.709 52.702 C 137.783 52.702 135.375 51.914 133.484 50.339 C 131.533 48.718 130.407 46.474 130.107 43.608 L 135.195 43.608 C 135.39 44.689 135.712 45.522 136.162 46.107 C 137.213 47.472 138.744 48.155 140.754 48.155 C 144.461 48.155 146.314 45.882 146.314 41.335 L 146.314 38.273 C 144.303 40.329 141.985 41.357 139.359 41.357 C 136.373 41.357 133.926 40.277 132.021 38.116 C 130.1 35.925 129.139 33.186 129.139 29.9 C 129.139 26.703 130.032 23.987 131.818 21.751 C 133.739 19.38 136.275 18.195 139.426 18.195 C 142.188 18.195 144.484 19.223 146.314 21.279 L 146.314 18.802 L 151.379 18.802 L 151.379 40.209 Z M 146.517 29.81 C 146.517 27.679 145.947 25.976 144.806 24.7 C 143.651 23.394 142.173 22.742 140.372 22.742 C 138.451 22.742 136.935 23.455 135.825 24.88 C 134.819 26.156 134.317 27.806 134.317 29.832 C 134.317 31.828 134.819 33.464 135.825 34.739 C 136.92 36.135 138.436 36.833 140.372 36.833 C 142.308 36.833 143.838 36.128 144.964 34.717 C 145.999 33.441 146.517 31.806 146.517 29.81 Z M 164.682 36.653 L 154.823 18.802 L 160.698 18.802 L 167.406 31.408 L 173.664 18.802 L 179.381 18.802 L 161.914 52.657 L 156.129 52.657 L 164.682 36.653 Z M 188.295 2.708 L 188.295 40.727 L 183.23 40.727 L 183.23 2.708 L 188.295 2.708 Z M 214.677 30.958 L 198.965 30.958 C 199.1 32.759 199.685 34.192 200.72 35.257 C 201.756 36.308 203.084 36.833 204.705 36.833 C 205.965 36.833 207.008 36.533 207.834 35.932 C 208.644 35.332 209.567 34.222 210.602 32.601 L 214.879 34.987 C 214.219 36.112 213.521 37.08 212.786 37.891 C 212.05 38.686 211.263 39.346 210.422 39.872 C 209.582 40.382 208.674 40.757 207.698 40.997 C 206.723 41.237 205.665 41.357 204.525 41.357 C 201.253 41.357 198.627 40.307 196.646 38.206 C 194.665 36.09 193.675 33.284 193.675 29.787 C 193.675 26.321 194.635 23.515 196.556 21.369 C 198.492 19.253 201.058 18.195 204.254 18.195 C 207.481 18.195 210.032 19.223 211.908 21.279 C 213.769 23.319 214.699 26.148 214.699 29.765 L 214.677 30.958 Z M 209.477 26.816 C 208.771 24.115 207.068 22.764 204.367 22.764 C 203.752 22.764 203.174 22.862 202.634 23.057 C 202.094 23.237 201.598 23.507 201.148 23.867 C 200.713 24.212 200.338 24.633 200.023 25.128 C 199.708 25.623 199.467 26.186 199.302 26.816 L 209.477 26.816 Z" id="text21" fill="#615ef9" stroke="#615ef9" stroke-linejoin="round" aria-label="argyle"></path>
    <defs id="defs6">
      <linearGradient id="gradient-1-74" gradientUnits="userSpaceOnUse" x1="-210.212" y1="656.925" x2="-210.212" y2="666.925" gradientTransform="matrix(1.167657, 0, 0, 0.87813, 0, 0)" xlink:href="#gradient-1"></linearGradient>
      <linearGradient id="gradient-1">
        <stop stop-color="#6363ff" offset="0"></stop>
        <stop stop-color="#563acc" offset="1"></stop>
      </linearGradient>
      <linearGradient id="gradient-0-65" gradientUnits="userSpaceOnUse" x1="-200.212" y1="656.925" x2="-200.212" y2="666.925" gradientTransform="matrix(1.167657, 0, 0, 0.87813, 0, 0)" xlink:href="#gradient-0"></linearGradient>
      <linearGradient id="gradient-0">
        <stop stop-color="#5c4de3" offset="0"></stop>
        <stop stop-color="#1f26b3" offset="1"></stop>
      </linearGradient>
      <linearGradient id="gradient-1-75" gradientUnits="userSpaceOnUse" x1="-190.212" y1="656.925" x2="-190.212" y2="666.925" gradientTransform="matrix(1.167657, 0, 0, 0.87813, 0, 0)" xlink:href="#gradient-1"></linearGradient>
      <linearGradient id="gradient-106-90" gradientUnits="userSpaceOnUse" x1="-180.212" y1="656.925" x2="-180.212" y2="666.925" gradientTransform="matrix(1.167657, 0, 0, 0.87813, 0, 0)" xlink:href="#gradient-106"></linearGradient>
      <linearGradient id="gradient-106">
        <stop stop-color="#4a3ade" offset="0"></stop>
        <stop stop-color="#131cb3" offset="1"></stop>
      </linearGradient>
      <linearGradient id="gradient-99-42" gradientUnits="userSpaceOnUse" x1="-170.212" y1="656.925" x2="-170.212" y2="666.925" gradientTransform="matrix(1.167657, 0, 0, 0.87813, 0, 0)" xlink:href="#gradient-99"></linearGradient>
      <linearGradient id="gradient-99">
        <stop stop-color="#3b2ad8" offset="0"></stop>
        <stop stop-color="#0d1583" offset="1"></stop>
      </linearGradient>
      <linearGradient id="gradient-0-66" gradientUnits="userSpaceOnUse" x1="-210.212" y1="666.925" x2="-210.212" y2="676.925" gradientTransform="matrix(1.167657, 0, 0, 0.87813, 0, 0)" xlink:href="#gradient-0"></linearGradient>
      <linearGradient id="gradient-106-91" gradientUnits="userSpaceOnUse" x1="-190.212" y1="666.925" x2="-190.212" y2="676.925" gradientTransform="matrix(1.167657, 0, 0, 0.87813, 0, 0)" xlink:href="#gradient-106"></linearGradient>
      <linearGradient id="gradient-1-76" gradientUnits="userSpaceOnUse" x1="-210.212" y1="676.925" x2="-210.212" y2="686.925" gradientTransform="matrix(1.167657, 0, 0, 0.87813, 0, 0)" xlink:href="#gradient-1"></linearGradient>
      <linearGradient id="gradient-106-92" gradientUnits="userSpaceOnUse" x1="-200.212" y1="676.925" x2="-200.212" y2="686.925" gradientTransform="matrix(1.167657, 0, 0, 0.87813, 0, 0)" xlink:href="#gradient-106"></linearGradient>
      <linearGradient id="gradient-0-67" gradientUnits="userSpaceOnUse" x1="-190.212" y1="676.925" x2="-190.212" y2="686.925" gradientTransform="matrix(1.167657, 0, 0, 0.87813, 0, 0)" xlink:href="#gradient-0"></linearGradient>
      <linearGradient id="gradient-106-93" gradientUnits="userSpaceOnUse" x1="-210.212" y1="686.925" x2="-210.212" y2="696.925" gradientTransform="matrix(1.167657, 0, 0, 0.87813, 0, 0)" xlink:href="#gradient-106"></linearGradient>
      <linearGradient id="gradient-99-45" gradientUnits="userSpaceOnUse" x1="-210.212" y1="696.925" x2="-210.212" y2="706.925" gradientTransform="matrix(1.167657, 0, 0, 0.87813, 0, 0)" xlink:href="#gradient-99"></linearGradient>
    </defs>
  </symbol>
  <use id="use4" transform="matrix(1.134866, 0, 0, 1.134866, 6.718214, -0.269762)" style="transform-box: fill-box;" xlink:href="#logo-symbol-wordmark"></use>
</svg>
