<svg width="261" height="66" viewBox="0.35 0.29 316.159 66.117" fill="none" version="1.1" id="svg4" xmlns="http://www.w3.org/2000/svg" xmlns:xlink="http://www.w3.org/1999/xlink">
  <defs id="defs5"></defs>
  <symbol id="logo-symbol-wordmark">
    <g transform="matrix(0.941583, 0, 0, 0.904306, -18.140242, 23.546415)" style="">
      <rect x="-251.294" y="576.865" width="11.677" height="8.781" transform="matrix(0.412848, 0.9108, -0.548968, 1.211099, 493.134033, -495.193268)" fill="url(#gradient-1-74)"></rect>
      <rect x="-239.617" y="576.865" width="11.677" height="8.781" transform="matrix(0.412848, 0.9108, -0.548968, 1.211099, 493.134033, -495.193268)" fill="url(#gradient-0-65)"></rect>
      <rect x="-227.941" y="576.865" width="11.677" height="8.781" transform="matrix(0.412848, 0.9108, -0.548968, 1.211099, 493.134033, -495.193268)" fill="url(#gradient-1-75)"></rect>
      <rect x="-216.264" y="576.865" width="11.677" height="8.781" fill="url(#gradient-106-90)" transform="matrix(0.412848, 0.9108, -0.548968, 1.211099, 493.134033, -495.193268)"></rect>
      <rect x="-204.588" y="576.865" width="11.677" height="8.781" transform="matrix(0.412848, 0.9108, -0.548968, 1.211099, 493.134033, -495.193268)" fill="url(#gradient-99-42)"></rect>
      <rect x="-251.294" y="585.647" width="11.677" height="8.781" transform="matrix(0.412848, 0.9108, -0.548968, 1.211099, 493.134033, -495.193268)" fill="url(#gradient-0-66)"></rect>
      <rect x="-227.941" y="585.647" width="11.677" height="8.781" fill="url(#gradient-106-91)" transform="matrix(0.412848, 0.9108, -0.548968, 1.211099, 493.134033, -495.193268)"></rect>
      <rect x="-251.294" y="594.428" width="11.677" height="8.781" transform="matrix(0.412848, 0.9108, -0.548968, 1.211099, 493.134033, -495.193268)" fill="url(#gradient-1-76)"></rect>
      <rect x="-239.617" y="594.428" width="11.677" height="8.781" fill="url(#gradient-106-92)" transform="matrix(0.412848, 0.9108, -0.548968, 1.211099, 493.134033, -495.193268)"></rect>
      <rect x="-227.941" y="594.428" width="11.677" height="8.781" transform="matrix(0.412848, 0.9108, -0.548968, 1.211099, 493.134033, -495.193268)" fill="url(#gradient-0-67)"></rect>
      <rect x="-251.294" y="603.209" width="11.677" height="8.781" fill="url(#gradient-106-93)" transform="matrix(0.412848, 0.9108, -0.548968, 1.211099, 493.134033, -495.193268)"></rect>
      <rect x="-251.294" y="611.991" width="11.677" height="8.781" transform="matrix(0.412848, 0.9108, -0.548968, 1.211099, 493.134033, -495.193268)" fill="url(#gradient-99-45)"></rect>
      <line style="fill: rgb(216, 216, 216); stroke-linecap: round; stroke: rgb(235, 235, 235); stroke-width: 0.774074px;" x1="67.82" y1="-14.957" x2="92.001" y2="38.394"></line>
      <line style="fill: rgb(216, 216, 216); stroke-linecap: round; stroke: rgb(235, 235, 235); stroke-width: 0.774074px;" x1="58.175" y1="6.333" x2="72.706" y2="38.394"></line>
      <line style="fill: rgb(216, 216, 216); stroke-linecap: round; stroke: rgb(235, 235, 235); stroke-width: 0.774074px;" x1="48.53" y1="27.56" x2="53.441" y2="38.394"></line>
    </g>
    <path d="M 117.173 19.412 L 122.77 19.412 L 122.77 43.531 L 117.173 43.531 L 117.173 41.006 C 114.878 43.152 112.411 44.224 109.769 44.224 C 106.435 44.224 103.678 43.02 101.499 40.61 C 99.336 38.15 98.255 35.08 98.255 31.398 C 98.255 27.783 99.336 24.77 101.499 22.359 C 103.662 19.949 106.369 18.745 109.621 18.745 C 112.427 18.745 114.945 19.9 117.173 22.211 L 117.173 19.412 Z M 103.95 31.398 C 103.95 33.709 104.569 35.591 105.807 37.043 C 107.079 38.513 108.68 39.248 110.611 39.248 C 112.675 39.248 114.342 38.538 115.613 37.118 C 116.885 35.648 117.52 33.784 117.52 31.522 C 117.52 29.26 116.885 27.394 115.613 25.926 C 114.342 24.489 112.691 23.771 110.66 23.771 C 108.746 23.771 107.145 24.497 105.856 25.95 C 104.586 27.42 103.95 29.235 103.95 31.398 Z M 129.802 19.412 L 135.373 19.412 L 135.373 21.567 C 136.396 20.494 137.305 19.76 138.097 19.363 C 138.906 18.95 139.864 18.745 140.969 18.745 C 142.439 18.745 143.974 19.223 145.575 20.18 L 143.025 25.281 C 141.968 24.522 140.936 24.143 139.93 24.143 C 136.893 24.143 135.373 26.437 135.373 31.027 L 135.373 43.531 L 129.802 43.531 L 129.802 19.412 Z M 172.096 42.961 C 172.096 44.101 172.055 45.1 171.972 45.958 C 171.906 46.833 171.806 47.6 171.674 48.26 C 171.278 50.077 170.503 51.637 169.347 52.941 C 167.168 55.451 164.172 56.705 160.358 56.705 C 157.139 56.705 154.49 55.838 152.41 54.105 C 150.264 52.322 149.025 49.853 148.695 46.701 L 154.292 46.701 C 154.507 47.89 154.861 48.806 155.356 49.45 C 156.512 50.951 158.196 51.703 160.407 51.703 C 164.485 51.703 166.524 49.202 166.524 44.2 L 166.524 40.832 C 164.312 43.093 161.762 44.224 158.873 44.224 C 155.588 44.224 152.896 43.036 150.801 40.659 C 148.687 38.249 147.63 35.236 147.63 31.621 C 147.63 28.104 148.613 25.116 150.577 22.657 C 152.691 20.048 155.48 18.745 158.947 18.745 C 161.985 18.745 164.511 19.876 166.524 22.137 L 166.524 19.412 L 172.096 19.412 L 172.096 42.961 Z M 166.747 31.522 C 166.747 29.178 166.12 27.304 164.865 25.901 C 163.594 24.464 161.968 23.747 159.987 23.747 C 157.874 23.747 156.206 24.531 154.985 26.099 C 153.879 27.502 153.326 29.317 153.326 31.546 C 153.326 33.742 153.879 35.542 154.985 36.944 C 156.19 38.48 157.858 39.248 159.987 39.248 C 162.117 39.248 163.8 38.472 165.039 36.92 C 166.177 35.516 166.747 33.718 166.747 31.522 Z M 186.73 39.05 L 175.884 19.412 L 182.347 19.412 L 189.726 33.28 L 196.611 19.412 L 202.9 19.412 L 183.685 56.655 L 177.321 56.655 L 186.73 39.05 Z M 212.706 1.708 L 212.706 43.531 L 207.134 43.531 L 207.134 1.708 L 212.706 1.708 Z M 241.727 32.785 L 224.443 32.785 C 224.592 34.766 225.235 36.342 226.374 37.514 C 227.514 38.67 228.974 39.248 230.758 39.248 C 232.144 39.248 233.291 38.918 234.2 38.257 C 235.091 37.596 236.106 36.375 237.245 34.592 L 241.95 37.217 C 241.224 38.455 240.456 39.519 239.647 40.412 C 238.838 41.286 237.972 42.012 237.047 42.591 C 236.123 43.152 235.124 43.564 234.05 43.828 C 232.978 44.092 231.814 44.224 230.56 44.224 C 226.96 44.224 224.071 43.069 221.892 40.758 C 219.713 38.43 218.624 35.344 218.624 31.497 C 218.624 27.684 219.68 24.597 221.793 22.236 C 223.923 19.909 226.746 18.745 230.262 18.745 C 233.811 18.745 236.618 19.876 238.681 22.137 C 240.729 24.381 241.752 27.493 241.752 31.472 L 241.727 32.785 Z M 236.007 28.228 C 235.231 25.257 233.357 23.771 230.386 23.771 C 229.709 23.771 229.073 23.879 228.479 24.093 C 227.885 24.291 227.34 24.588 226.845 24.984 C 226.366 25.364 225.954 25.827 225.607 26.371 C 225.261 26.916 224.996 27.535 224.814 28.228 L 236.007 28.228 Z" id="text21" fill="#615ef9" stroke="#615ef9" stroke-linejoin="round" aria-label="argyle" style=""></path>
    <defs id="defs6">
      <linearGradient id="gradient-1-74" gradientUnits="userSpaceOnUse" x1="-210.212" y1="656.925" x2="-210.212" y2="666.925" gradientTransform="matrix(1.167657, 0, 0, 0.87813, 0, 0)" xlink:href="#gradient-1"></linearGradient>
      <linearGradient id="gradient-1">
        <stop stop-color="#6363ff" offset="0"></stop>
        <stop stop-color="#563acc" offset="1"></stop>
      </linearGradient>
      <linearGradient id="gradient-0-65" gradientUnits="userSpaceOnUse" x1="-200.212" y1="656.925" x2="-200.212" y2="666.925" gradientTransform="matrix(1.167657, 0, 0, 0.87813, 0, 0)" xlink:href="#gradient-0"></linearGradient>
      <linearGradient id="gradient-0">
        <stop stop-color="#5c4de3" offset="0"></stop>
        <stop stop-color="#1f26b3" offset="1"></stop>
      </linearGradient>
      <linearGradient id="gradient-1-75" gradientUnits="userSpaceOnUse" x1="-190.212" y1="656.925" x2="-190.212" y2="666.925" gradientTransform="matrix(1.167657, 0, 0, 0.87813, 0, 0)" xlink:href="#gradient-1"></linearGradient>
      <linearGradient id="gradient-106-90" gradientUnits="userSpaceOnUse" x1="-180.212" y1="656.925" x2="-180.212" y2="666.925" gradientTransform="matrix(1.167657, 0, 0, 0.87813, 0, 0)" xlink:href="#gradient-106"></linearGradient>
      <linearGradient id="gradient-106">
        <stop stop-color="#4a3ade" offset="0"></stop>
        <stop stop-color="#131cb3" offset="1"></stop>
      </linearGradient>
      <linearGradient id="gradient-99-42" gradientUnits="userSpaceOnUse" x1="-170.212" y1="656.925" x2="-170.212" y2="666.925" gradientTransform="matrix(1.167657, 0, 0, 0.87813, 0, 0)" xlink:href="#gradient-99"></linearGradient>
      <linearGradient id="gradient-99">
        <stop stop-color="#3b2ad8" offset="0"></stop>
        <stop stop-color="#0d1583" offset="1"></stop>
      </linearGradient>
      <linearGradient id="gradient-0-66" gradientUnits="userSpaceOnUse" x1="-210.212" y1="666.925" x2="-210.212" y2="676.925" gradientTransform="matrix(1.167657, 0, 0, 0.87813, 0, 0)" xlink:href="#gradient-0"></linearGradient>
      <linearGradient id="gradient-106-91" gradientUnits="userSpaceOnUse" x1="-190.212" y1="666.925" x2="-190.212" y2="676.925" gradientTransform="matrix(1.167657, 0, 0, 0.87813, 0, 0)" xlink:href="#gradient-106"></linearGradient>
      <linearGradient id="gradient-1-76" gradientUnits="userSpaceOnUse" x1="-210.212" y1="676.925" x2="-210.212" y2="686.925" gradientTransform="matrix(1.167657, 0, 0, 0.87813, 0, 0)" xlink:href="#gradient-1"></linearGradient>
      <linearGradient id="gradient-106-92" gradientUnits="userSpaceOnUse" x1="-200.212" y1="676.925" x2="-200.212" y2="686.925" gradientTransform="matrix(1.167657, 0, 0, 0.87813, 0, 0)" xlink:href="#gradient-106"></linearGradient>
      <linearGradient id="gradient-0-67" gradientUnits="userSpaceOnUse" x1="-190.212" y1="676.925" x2="-190.212" y2="686.925" gradientTransform="matrix(1.167657, 0, 0, 0.87813, 0, 0)" xlink:href="#gradient-0"></linearGradient>
      <linearGradient id="gradient-106-93" gradientUnits="userSpaceOnUse" x1="-210.212" y1="686.925" x2="-210.212" y2="696.925" gradientTransform="matrix(1.167657, 0, 0, 0.87813, 0, 0)" xlink:href="#gradient-106"></linearGradient>
      <linearGradient id="gradient-99-45" gradientUnits="userSpaceOnUse" x1="-210.212" y1="696.925" x2="-210.212" y2="706.925" gradientTransform="matrix(1.167657, 0, 0, 0.87813, 0, 0)" xlink:href="#gradient-99"></linearGradient>
    </defs>
  </symbol>
  <use id="use4" transform="matrix(1.134866, 0, 0, 1.134866, 6.718214, -0.269762)" style="transform-box: fill-box;" xlink:href="#logo-symbol-wordmark"></use>
</svg>
