<?xml version="1.0" encoding="utf-8"?>
<svg width="261" height="66" viewBox="0 0 261 66" fill="none" version="1.1" id="svg4" xmlns="http://www.w3.org/2000/svg" xmlns:xlink="http://www.w3.org/1999/xlink">
  <symbol id="logo-symbol-wordmark">
    <path d="M60.7539 14.4034C59.8143 7.41942 53.7273 1.91557 46.5117 0.849066C45.2943 0.668854 40.6819 0.0130005 29.9973 0.0130005H29.9175C19.2299 0.0130005 16.937 0.668854 15.7196 0.849066C8.70488 1.88602 2.29885 6.83152 0.744617 13.8982C-0.00294988 17.3784 -0.0827298 21.2367 0.0561464 24.7759C0.254119 29.8514 0.292531 34.918 0.753482 39.9728C1.07215 43.3305 1.62806 46.6614 2.41704 49.9406C3.89445 55.9969 9.87499 61.0369 15.7344 63.0931C22.0077 65.2374 28.7542 65.5934 35.2184 64.1212C35.9295 63.9558 36.6318 63.7638 37.3252 63.5451C38.8971 63.0459 40.738 62.4875 42.0913 61.5067C42.1099 61.4929 42.1251 61.4751 42.1358 61.4547C42.1466 61.4342 42.1526 61.4116 42.1534 61.3885V56.4903C42.153 56.4687 42.1479 56.4475 42.1383 56.4281C42.1287 56.4088 42.1149 56.3918 42.0979 56.3785C42.0809 56.3652 42.0611 56.3559 42.04 56.3512C42.019 56.3465 41.9971 56.3466 41.9761 56.3514C37.8345 57.3406 33.5905 57.8364 29.3324 57.8286C22.0045 57.8286 20.0336 54.3514 19.4693 52.9038C19.0156 51.6527 18.7275 50.3476 18.6124 49.0218C18.6112 48.9996 18.6153 48.9773 18.6243 48.9569C18.6333 48.9366 18.647 48.9186 18.6643 48.9045C18.6816 48.8904 18.7019 48.8805 18.7237 48.8758C18.7455 48.871 18.7681 48.8715 18.7897 48.8771C22.8622 49.8595 27.037 50.3553 31.2265 50.3542C32.234 50.3542 33.2387 50.3542 34.2463 50.3276C38.4598 50.2094 42.9009 49.9938 47.0465 49.1843C47.1499 49.1636 47.2534 49.1459 47.342 49.1193C53.881 47.8637 60.1038 43.9227 60.7362 33.9431C60.7598 33.5502 60.8189 29.8278 60.8189 29.4201C60.8218 28.0345 61.2651 19.5911 60.7539 14.4034Z" fill="url(#paint0_linear_89_11)" id="path1"/>
    <path d="M12.3442 18.3034C12.3442 16.2668 13.9777 14.6194 15.997 14.6194C18.0163 14.6194 19.6497 16.2668 19.6497 18.3034C19.6497 20.34 18.0163 21.9874 15.997 21.9874C13.9777 21.9874 12.3442 20.34 12.3442 18.3034Z" fill="currentColor" id="path2"/>
    <path d="M66.1484 21.4685V38.3839H59.4988V21.9744C59.4988 18.5109 58.0583 16.7597 55.1643 16.7597C51.9746 16.7597 50.3668 18.8482 50.3668 22.9603V31.9499H43.7687V22.9603C43.7687 18.8352 42.1738 16.7597 38.9712 16.7597C36.0901 16.7597 34.6367 18.5109 34.6367 21.9744V38.3839H28V21.4685C28 18.018 28.8746 15.268 30.6238 13.2314C32.4374 11.1948 34.8039 10.157 37.7365 10.157C41.132 10.157 43.7172 11.4802 45.415 14.1135L47.0742 16.9154L48.7334 14.1135C50.4311 11.4802 53.0035 10.157 56.4119 10.157C59.3444 10.157 61.711 11.1948 63.5246 13.2314C65.2738 15.268 66.1484 18.005 66.1484 21.4685ZM89.0297 29.8743C90.4059 28.4085 91.0619 26.5795 91.0619 24.3613C91.0619 22.1431 90.4059 20.3011 89.0297 18.9001C87.7049 17.4343 86.0329 16.7338 84.0007 16.7338C81.9685 16.7338 80.2965 17.4343 78.9717 18.9001C77.6469 20.3011 76.991 22.1431 76.991 24.3613C76.991 26.5795 77.6469 28.4215 78.9717 29.8743C80.2965 31.2753 81.9685 31.9888 84.0007 31.9888C86.0329 31.9888 87.7049 31.2883 89.0297 29.8743ZM91.0619 10.8316H97.6086V37.891H91.0619V34.6999C89.0811 37.3462 86.3416 38.6563 82.7788 38.6563C79.2161 38.6563 76.4765 37.3073 74.0456 34.5442C71.6533 31.7812 70.4443 28.3696 70.4443 24.3743C70.4443 20.3789 71.6661 17.0192 74.0456 14.2561C76.4893 11.4931 79.3833 10.0922 82.7788 10.0922C86.1744 10.0922 89.0811 11.3894 91.0619 14.0356V10.8445V10.8316ZM119.654 23.8683C121.583 25.3342 122.548 27.3837 122.496 29.9781C122.496 32.7411 121.532 34.9075 119.551 36.4122C117.57 37.878 115.178 38.6304 112.284 38.6304C107.049 38.6304 103.499 36.4641 101.621 32.1963L107.306 28.7847C108.065 31.1067 109.737 32.3001 112.284 32.3001C114.625 32.3001 115.782 31.5477 115.782 29.9781C115.782 28.8366 114.265 27.8118 111.165 27.0075C109.995 26.6833 109.03 26.359 108.271 26.0865C107.204 25.6585 106.29 25.1655 105.532 24.5688C103.654 23.103 102.689 21.1572 102.689 18.6666C102.689 16.0203 103.602 13.9059 105.429 12.3882C107.306 10.8186 109.596 10.0662 112.335 10.0662C116.709 10.0662 119.898 11.9601 121.982 15.7998L116.4 19.0428C115.59 17.2008 114.213 16.2798 112.335 16.2798C110.355 16.2798 109.39 17.0321 109.39 18.498C109.39 19.6395 110.908 20.6643 114.008 21.4685C116.4 22.0134 118.278 22.8176 119.641 23.8554L119.654 23.8683ZM140.477 17.538H134.741V28.7977C134.741 30.1468 135.255 30.964 136.22 31.3402C136.927 31.6126 138.355 31.6645 140.49 31.5607V37.891C136.079 38.4358 132.876 37.9948 130.998 36.5419C129.12 35.1409 128.207 32.5336 128.207 28.8106V17.538H123.795V10.8316H128.207V5.37038L134.754 3.25595V10.8316H140.49V17.538H140.477ZM161.352 29.7187C162.677 28.3177 163.333 26.5276 163.333 24.3613C163.333 22.195 162.677 20.4178 161.352 19.0039C160.027 17.6029 158.407 16.8894 156.426 16.8894C154.445 16.8894 152.825 17.5899 151.5 19.0039C150.227 20.4697 149.571 22.2469 149.571 24.3613C149.571 26.4757 150.227 28.2529 151.5 29.7187C152.825 31.1196 154.445 31.8331 156.426 31.8331C158.407 31.8331 160.027 31.1326 161.352 29.7187ZM146.883 34.5313C144.297 31.7682 143.024 28.4215 143.024 24.3613C143.024 20.3011 144.297 17.0062 146.883 14.2432C149.468 11.4802 152.67 10.0792 156.426 10.0792C160.182 10.0792 163.384 11.4802 165.97 14.2432C168.555 17.0062 169.88 20.4178 169.88 24.3613C169.88 28.3047 168.555 31.7682 165.97 34.5313C163.384 37.2943 160.233 38.6434 156.426 38.6434C152.619 38.6434 149.468 37.2943 146.883 34.5313ZM191.771 29.8743C193.095 28.4085 193.751 26.5795 193.751 24.3613C193.751 22.1431 193.095 20.3011 191.771 18.9001C190.446 17.4343 188.774 16.7338 186.742 16.7338C184.709 16.7338 183.037 17.4343 181.661 18.9001C180.336 20.3011 179.68 22.1431 179.68 24.3613C179.68 26.5795 180.336 28.4215 181.661 29.8743C183.037 31.2753 184.761 31.9888 186.742 31.9888C188.722 31.9888 190.446 31.2883 191.771 29.8743ZM193.751 0H200.298V37.891H193.751V34.6999C191.822 37.3462 189.082 38.6563 185.52 38.6563C181.957 38.6563 179.179 37.3073 176.735 34.5442C174.343 31.7812 173.134 28.3696 173.134 24.3743C173.134 20.3789 174.356 17.0192 176.735 14.2561C179.166 11.4931 182.111 10.0922 185.52 10.0922C188.928 10.0922 191.822 11.3894 193.751 14.0356V0.0129719V0ZM223.308 29.7057C224.633 28.3047 225.289 26.5146 225.289 24.3483C225.289 22.182 224.633 20.4048 223.308 18.9909C221.983 17.5899 220.363 16.8765 218.382 16.8765C216.401 16.8765 214.78 17.577 213.456 18.9909C212.182 20.4567 211.526 22.2339 211.526 24.3483C211.526 26.4627 212.182 28.2399 213.456 29.7057C214.78 31.1067 216.401 31.8201 218.382 31.8201C220.363 31.8201 221.983 31.1196 223.308 29.7057ZM208.838 34.5183C206.253 31.7553 204.98 28.4085 204.98 24.3483C204.98 20.2881 206.253 16.9932 208.838 14.2302C211.424 11.4672 214.626 10.0662 218.382 10.0662C222.137 10.0662 225.34 11.4672 227.925 14.2302C230.511 16.9932 231.835 20.4048 231.835 24.3483C231.835 28.2918 230.511 31.7553 227.925 34.5183C225.34 37.2813 222.189 38.6304 218.382 38.6304C214.575 38.6304 211.424 37.2813 208.838 34.5183ZM260.17 21.261V37.878H253.623V22.1301C253.623 20.34 253.173 18.9909 252.247 17.9661C251.385 17.0451 250.164 16.5651 248.594 16.5651C244.89 16.5651 243.012 18.7833 243.012 23.2716V37.878H236.466V10.8316H243.012V13.867C244.581 11.3245 247.077 10.0792 250.575 10.0792C253.366 10.0792 255.656 11.0521 257.431 13.0498C259.257 15.0474 260.17 17.7586 260.17 21.274" fill="currentColor" id="path3"/>
    <defs id="defs4">
      <linearGradient id="paint0_linear_89_11" x1="30.5" y1="0.0130005" x2="30.5" y2="65.013" gradientUnits="userSpaceOnUse">
        <stop stop-color="#6364FF" id="stop3"/>
        <stop offset="1" stop-color="#563ACC" id="stop4"/>
      </linearGradient>
    </defs>
    <path d="M 140.553 24.097 L 145.64 24.097 L 145.64 46.022 L 140.553 46.022 L 140.553 43.726 C 138.467 45.676 136.224 46.652 133.823 46.652 C 130.791 46.652 128.285 45.556 126.304 43.365 C 124.338 41.129 123.356 38.338 123.356 34.992 C 123.356 31.705 124.338 28.967 126.304 26.776 C 128.27 24.585 130.731 23.489 133.688 23.489 C 136.239 23.489 138.527 24.54 140.553 26.641 L 140.553 24.097 Z M 128.533 34.992 C 128.533 37.093 129.096 38.803 130.221 40.124 C 131.377 41.46 132.832 42.127 134.588 42.127 C 136.464 42.127 137.979 41.482 139.135 40.192 C 140.29 38.856 140.868 37.16 140.868 35.104 C 140.868 33.048 140.29 31.353 139.135 30.017 C 137.979 28.712 136.479 28.059 134.633 28.059 C 132.892 28.059 131.437 28.719 130.266 30.04 C 129.111 31.375 128.533 33.026 128.533 34.992 Z M 152.033 24.097 L 157.098 24.097 L 157.098 26.055 C 158.028 25.08 158.853 24.412 159.574 24.052 C 160.309 23.677 161.179 23.489 162.185 23.489 C 163.52 23.489 164.916 23.925 166.372 24.795 L 164.053 29.432 C 163.093 28.742 162.155 28.396 161.239 28.396 C 158.478 28.396 157.098 30.482 157.098 34.654 L 157.098 46.022 L 152.033 46.022 L 152.033 24.097 Z M 190.48 45.504 C 190.48 46.539 190.442 47.447 190.367 48.228 C 190.307 49.023 190.217 49.721 190.097 50.321 C 189.737 51.972 189.032 53.39 187.981 54.575 C 186 56.856 183.277 57.997 179.81 57.997 C 176.884 57.997 174.475 57.209 172.584 55.633 C 170.634 54.013 169.508 51.769 169.208 48.903 L 174.295 48.903 C 174.49 49.983 174.813 50.816 175.263 51.401 C 176.314 52.767 177.844 53.45 179.855 53.45 C 183.562 53.45 185.415 51.176 185.415 46.629 L 185.415 43.568 C 183.404 45.624 181.086 46.652 178.459 46.652 C 175.473 46.652 173.027 45.571 171.121 43.41 C 169.2 41.22 168.24 38.481 168.24 35.194 C 168.24 31.998 169.133 29.282 170.919 27.046 C 172.84 24.675 175.376 23.489 178.527 23.489 C 181.288 23.489 183.584 24.517 185.415 26.573 L 185.415 24.097 L 190.48 24.097 L 190.48 45.504 Z M 185.618 35.104 C 185.618 32.973 185.047 31.27 183.907 29.995 C 182.751 28.689 181.273 28.036 179.472 28.036 C 177.552 28.036 176.036 28.749 174.925 30.175 C 173.92 31.45 173.417 33.101 173.417 35.127 C 173.417 37.123 173.92 38.758 174.925 40.034 C 176.021 41.43 177.537 42.127 179.472 42.127 C 181.408 42.127 182.939 41.422 184.064 40.012 C 185.1 38.736 185.618 37.1 185.618 35.104 Z M 203.783 41.947 L 193.924 24.097 L 199.799 24.097 L 206.507 36.703 L 212.764 24.097 L 218.482 24.097 L 201.014 57.952 L 195.229 57.952 L 203.783 41.947 Z M 227.396 8.003 L 227.396 46.022 L 222.331 46.022 L 222.331 8.003 L 227.396 8.003 Z M 253.777 36.252 L 238.065 36.252 C 238.2 38.053 238.786 39.486 239.821 40.552 C 240.857 41.602 242.185 42.127 243.805 42.127 C 245.066 42.127 246.109 41.827 246.934 41.227 C 247.745 40.627 248.667 39.516 249.703 37.896 L 253.98 40.282 C 253.319 41.407 252.622 42.375 251.886 43.185 C 251.151 43.981 250.363 44.641 249.523 45.166 C 248.682 45.676 247.775 46.052 246.799 46.292 C 245.824 46.532 244.766 46.652 243.625 46.652 C 240.354 46.652 237.728 45.601 235.747 43.501 C 233.766 41.385 232.776 38.578 232.776 35.082 C 232.776 31.615 233.736 28.809 235.657 26.663 C 237.593 24.547 240.159 23.489 243.355 23.489 C 246.582 23.489 249.133 24.517 251.008 26.573 C 252.869 28.614 253.8 31.443 253.8 35.059 L 253.777 36.252 Z M 248.577 32.111 C 247.872 29.409 246.169 28.059 243.468 28.059 C 242.852 28.059 242.275 28.156 241.734 28.351 C 241.194 28.532 240.699 28.802 240.249 29.162 C 239.814 29.507 239.438 29.927 239.123 30.422 C 238.808 30.918 238.568 31.48 238.403 32.111 L 248.577 32.111 Z" id="text19" fill="#ebebeb" aria-label="argyle"/>
    <g style="transform-origin: 42.2815px 30.3653px;" transform="matrix(0, -2.027412, 3.469915, 0, 14.251863, 2.634686)">
      <g transform="matrix(0.707107, 0.707107, -0.707107, 0.707107, -42.718349, -74.634865)" style="transform-origin: 85px 105px;">
        <rect x="74.643" y="94.643" width="10" height="10" style="fill: url('#gradient-0-9');"/>
        <rect x="85.61" y="94.39" width="10" height="10" style="fill: url('#gradient-0-10');"/>
        <rect x="74.39" y="105.61" width="10" height="10" style="fill: url('#gradient-0-11');"/>
        <rect x="85.357" y="105.357" width="10" height="10" style="fill: url('#gradient-0-12');"/>
        <polyline style="fill: rgb(216, 216, 216); stroke: rgb(228, 228, 228); stroke-width: 0.25px; stroke-linecap: round;" points="71.643 99.662 97.643 99.643"/>
        <polyline style="fill: rgb(216, 216, 216); stroke: rgb(228, 228, 228); stroke-width: 0.25px; stroke-linecap: round;" points="72.357 110.376 98.357 110.357"/>
        <polyline style="fill: rgb(216, 216, 216); stroke: rgb(228, 228, 228); stroke-width: 0.25px; stroke-linecap: round; transform-box: fill-box; transform-origin: 50% 50%;" points="66.644 104.653 92.663 104.633" transform="matrix(0, 1, -1, 0.981989, -0.000008, 0.000003)"/>
        <polyline style="fill: rgb(216, 216, 216); stroke: rgb(228, 228, 228); stroke-width: 0.25px; stroke-linecap: round; transform-origin: 90.367px 105.357px;" points="77.357 105.367 103.377 105.347" transform="matrix(0, 1, -1, 0.981989, 0.000001, -0.000003)"/>
      </g>
    </g>
  </symbol>
  <defs id="defs5">
    <linearGradient id="gradient-0">
      <title>Original Mastodon</title>
      <stop stop-color="#6364FF" offset="0"/>
      <stop stop-color="#563ACC" offset="1"/>
    </linearGradient>
    <linearGradient id="gradient-0-9" gradientUnits="userSpaceOnUse" x1="40.407" y1="97.4" x2="40.407" y2="107.4" gradientTransform="matrix(1, 0, 0, 1, 39.237117, -2.756915)" xlink:href="#gradient-0"/>
    <linearGradient id="gradient-0-10" gradientUnits="userSpaceOnUse" x1="40.407" y1="97.4" x2="40.407" y2="107.4" gradientTransform="matrix(1, 0, 0, 1, 50.204251, -3.010692)" xlink:href="#gradient-0"/>
    <linearGradient id="gradient-0-11" gradientUnits="userSpaceOnUse" x1="40.407" y1="97.4" x2="40.407" y2="107.4" gradientTransform="matrix(1, 0, 0, 1, 38.98334, 8.21022)" xlink:href="#gradient-0"/>
    <linearGradient id="gradient-0-12" gradientUnits="userSpaceOnUse" x1="40.407" y1="97.4" x2="40.407" y2="107.4" gradientTransform="matrix(1, 0, 0, 1, 49.950474, 7.956444)" xlink:href="#gradient-0"/>
  </defs>
</svg>
