<?xml version="1.0" encoding="utf-8"?>
<svg width="261" height="66" viewBox="0 0 261 66" fill="none" version="1.1" id="svg4" xmlns="http://www.w3.org/2000/svg" xmlns:xlink="http://www.w3.org/1999/xlink">
  <defs id="defs5"/>
  <symbol id="logo-symbol-wordmark">
    <g transform="matrix(0.882997, 0, 0, 0.882997, -40.201591, 22.446177)" style="">
      <rect x="-251.294" y="576.865" width="11.677" height="8.781" fill="url(#gradient-1-74)" transform="matrix(0.412848, 0.9108, -0.548968, 1.211099, 493.134033, -495.193268)"/>
      <rect x="-239.617" y="576.865" width="11.677" height="8.781" fill="url(#gradient-0-65)" transform="matrix(0.412848, 0.9108, -0.548968, 1.211099, 493.134033, -495.193268)"/>
      <rect x="-227.941" y="576.865" width="11.677" height="8.781" fill="url(#gradient-1-75)" transform="matrix(0.412848, 0.9108, -0.548968, 1.211099, 493.134033, -495.193268)"/>
      <rect x="-216.264" y="576.865" width="11.677" height="8.781" fill="url(#gradient-106-90)" transform="matrix(0.412848, 0.9108, -0.548968, 1.211099, 493.134033, -495.193268)"/>
      <rect x="-204.588" y="576.865" width="11.677" height="8.781" fill="url(#gradient-99-42)" transform="matrix(0.412848, 0.9108, -0.548968, 1.211099, 493.134033, -495.193268)"/>
      <rect x="-251.294" y="585.647" width="11.677" height="8.781" fill="url(#gradient-0-66)" transform="matrix(0.412848, 0.9108, -0.548968, 1.211099, 493.134033, -495.193268)"/>
      <rect x="-227.941" y="585.647" width="11.677" height="8.781" fill="url(#gradient-106-91)" transform="matrix(0.412848, 0.9108, -0.548968, 1.211099, 493.134033, -495.193268)"/>
      <rect x="-251.294" y="594.428" width="11.677" height="8.781" fill="url(#gradient-1-76)" transform="matrix(0.412848, 0.9108, -0.548968, 1.211099, 493.134033, -495.193268)"/>
      <rect x="-239.617" y="594.428" width="11.677" height="8.781" fill="url(#gradient-106-92)" transform="matrix(0.412848, 0.9108, -0.548968, 1.211099, 493.134033, -495.193268)"/>
      <rect x="-227.941" y="594.428" width="11.677" height="8.781" fill="url(#gradient-0-67)" transform="matrix(0.412848, 0.9108, -0.548968, 1.211099, 493.134033, -495.193268)"/>
      <rect x="-216.264" y="594.428" width="11.677" height="8.781" fill="url(#gradient-99-43)" transform="matrix(0.412848, 0.9108, -0.548968, 1.211099, 493.134033, -495.193268)"/>
      <rect x="-251.294" y="603.209" width="11.677" height="8.781" fill="url(#gradient-106-93)" transform="matrix(0.412848, 0.9108, -0.548968, 1.211099, 493.134033, -495.193268)"/>
      <rect x="-227.941" y="603.209" width="11.677" height="8.781" fill="url(#gradient-99-44)" transform="matrix(0.412848, 0.9108, -0.548968, 1.211099, 493.134033, -495.193268)"/>
      <rect x="-251.294" y="611.991" width="11.677" height="8.781" fill="url(#gradient-99-45)" transform="matrix(0.412848, 0.9108, -0.548968, 1.211099, 493.134033, -495.193268)"/>
    </g>
    <path
     d="m 83.549228,100.83614 h 6.654199 v 28.67783 h -6.654199 v -3.00322 q -4.092627,3.82763 -8.803564,3.82763 -5.947559,0 -9.834082,-4.29873 -3.85708,-4.38706 -3.85708,-10.95293 0,-6.44809 3.85708,-10.74682 3.85708,-4.29873 9.657422,-4.29873 5.005371,0 8.980224,4.12207 z m -15.722754,14.25058 q 0,4.12207 2.208252,6.71309 2.267139,2.62046 5.712012,2.62046 3.68042,0 5.947559,-2.53213 2.267138,-2.62046 2.267138,-6.6542 0,-4.03374 -2.267138,-6.6542 -2.267139,-2.56157 -5.888672,-2.56157 -3.41543,0 -5.712012,2.59101 -2.267139,2.62046 -2.267139,6.47754 z m 30.738867,-14.25058 h 6.624759 v 2.56157 q 1.82549,-1.91382 3.23877,-2.62046 1.44272,-0.73608 3.41543,-0.73608 2.62045,0 5.47646,1.70771 l -3.03267,6.06533 q -1.88437,-1.35439 -3.68042,-1.35439 -5.41757,0 -5.41757,8.18525 v 14.8689 h -6.624759 z m 50.289259,28.00063 q 0,2.03159 -0.14722,3.56265 -0.11777,1.5605 -0.35332,2.73823 -0.70664,3.23877 -2.76767,5.5648 -3.88653,4.47539 -10.68794,4.47539 -5.74146,0 -9.45132,-3.09156 -3.82764,-3.17988 -4.4165,-8.80356 h 6.6542 q 0.38276,2.11992 1.26606,3.26821 2.06104,2.67935 6.00645,2.67935 7.2725,0 7.2725,-8.92134 v -4.0043 q -3.94541,4.03374 -9.09799,4.03374 -5.85923,0 -9.59854,-4.23984 -3.76875,-4.29873 -3.76875,-10.74683 0,-6.27143 3.50376,-10.65849 3.76875,-4.65205 9.95186,-4.65205 5.41758,0 9.00966,4.03374 v -3.23877 h 6.62476 z m -6.35976,-13.60283 q 0,-4.18096 -2.2377,-6.68364 -2.26714,-2.56157 -5.80034,-2.56157 -3.76875,0 -5.94756,2.79711 -1.97271,2.50269 -1.97271,6.47754 0,3.91597 1.97271,6.41866 2.14936,2.73823 5.94756,2.73823 3.79819,0 6.00644,-2.76768 2.0316,-2.50268 2.0316,-6.41865 z m 23.76078,8.95078 -12.89619,-23.34858 h 7.68472 l 8.77412,16.48828 8.18526,-16.48828 h 7.47861 l -22.84805,44.28281 h -7.56694 z M 197.1417,79.784136 v 49.729834 h -6.62476 V 79.784136 Z m 34.50763,36.951414 h -20.55146 q 0.26499,3.5332 2.29658,5.62368 2.03159,2.06104 5.21147,2.06104 2.47325,0 4.09263,-1.17774 1.58994,-1.17773 3.62153,-4.35761 l 5.59424,3.12099 q -1.29551,2.20825 -2.73823,3.7982 -1.44272,1.56049 -3.09155,2.59101 -1.64883,1.00108 -3.56265,1.47217 -1.91382,0.47109 -4.15151,0.47109 -6.41866,0 -10.30518,-4.12207 -3.88652,-4.15151 -3.88652,-11.01181 0,-6.80142 3.76875,-11.01182 3.79819,-4.15151 10.06963,-4.15151 6.33032,0 10.01074,4.03374 3.65098,4.00429 3.65098,11.10014 z m -6.80141,-5.41758 q -1.38384,-5.2998 -6.68365,-5.2998 -1.20717,0 -2.26714,0.38276 -1.05996,0.35332 -1.94326,1.05996 -0.85385,0.6772 -1.47216,1.64883 -0.61832,0.97163 -0.94219,2.20825 z"
     id="text21"
     fill="#ebebeb"
     aria-label="argyle" />
    <defs id="defs6">
      <linearGradient id="gradient-1-74" gradientUnits="userSpaceOnUse" x1="-210.212" y1="656.925" x2="-210.212" y2="666.925" gradientTransform="matrix(1.167657, 0, 0, 0.87813, 0, 0)" xlink:href="#gradient-1"/>
      <linearGradient id="gradient-1">
        <stop stop-color="#6363ff" offset="0"/>
        <stop stop-color="#563acc" offset="1"/>
      </linearGradient>
      <linearGradient id="gradient-0-65" gradientUnits="userSpaceOnUse" x1="-200.212" y1="656.925" x2="-200.212" y2="666.925" gradientTransform="matrix(1.167657, 0, 0, 0.87813, 0, 0)" xlink:href="#gradient-0"/>
      <linearGradient id="gradient-0">
        <stop stop-color="#5c4de3" offset="0"/>
        <stop stop-color="#1f26b3" offset="1"/>
      </linearGradient>
      <linearGradient id="gradient-1-75" gradientUnits="userSpaceOnUse" x1="-190.212" y1="656.925" x2="-190.212" y2="666.925" gradientTransform="matrix(1.167657, 0, 0, 0.87813, 0, 0)" xlink:href="#gradient-1"/>
      <linearGradient id="gradient-106-90" gradientUnits="userSpaceOnUse" x1="-180.212" y1="656.925" x2="-180.212" y2="666.925" gradientTransform="matrix(1.167657, 0, 0, 0.87813, 0, 0)" xlink:href="#gradient-106"/>
      <linearGradient id="gradient-106">
        <stop stop-color="#4a3ade" offset="0"/>
        <stop stop-color="#131cb3" offset="1"/>
      </linearGradient>
      <linearGradient id="gradient-99-42" gradientUnits="userSpaceOnUse" x1="-170.212" y1="656.925" x2="-170.212" y2="666.925" gradientTransform="matrix(1.167657, 0, 0, 0.87813, 0, 0)" xlink:href="#gradient-99"/>
      <linearGradient id="gradient-99">
        <stop stop-color="#3b2ad8" offset="0"/>
        <stop stop-color="#0d1583" offset="1"/>
      </linearGradient>
      <linearGradient id="gradient-0-66" gradientUnits="userSpaceOnUse" x1="-210.212" y1="666.925" x2="-210.212" y2="676.925" gradientTransform="matrix(1.167657, 0, 0, 0.87813, 0, 0)" xlink:href="#gradient-0"/>
      <linearGradient id="gradient-106-91" gradientUnits="userSpaceOnUse" x1="-190.212" y1="666.925" x2="-190.212" y2="676.925" gradientTransform="matrix(1.167657, 0, 0, 0.87813, 0, 0)" xlink:href="#gradient-106"/>
      <linearGradient id="gradient-1-76" gradientUnits="userSpaceOnUse" x1="-210.212" y1="676.925" x2="-210.212" y2="686.925" gradientTransform="matrix(1.167657, 0, 0, 0.87813, 0, 0)" xlink:href="#gradient-1"/>
      <linearGradient id="gradient-106-92" gradientUnits="userSpaceOnUse" x1="-200.212" y1="676.925" x2="-200.212" y2="686.925" gradientTransform="matrix(1.167657, 0, 0, 0.87813, 0, 0)" xlink:href="#gradient-106"/>
      <linearGradient id="gradient-0-67" gradientUnits="userSpaceOnUse" x1="-190.212" y1="676.925" x2="-190.212" y2="686.925" gradientTransform="matrix(1.167657, 0, 0, 0.87813, 0, 0)" xlink:href="#gradient-0"/>
      <linearGradient id="gradient-99-43" gradientUnits="userSpaceOnUse" x1="-180.212" y1="676.925" x2="-180.212" y2="686.925" gradientTransform="matrix(1.167657, 0, 0, 0.87813, 0, 0)" xlink:href="#gradient-99"/>
      <linearGradient id="gradient-106-93" gradientUnits="userSpaceOnUse" x1="-210.212" y1="686.925" x2="-210.212" y2="696.925" gradientTransform="matrix(1.167657, 0, 0, 0.87813, 0, 0)" xlink:href="#gradient-106"/>
      <linearGradient id="gradient-99-44" gradientUnits="userSpaceOnUse" x1="-190.212" y1="686.925" x2="-190.212" y2="696.925" gradientTransform="matrix(1.167657, 0, 0, 0.87813, 0, 0)" xlink:href="#gradient-99"/>
      <linearGradient id="gradient-99-45" gradientUnits="userSpaceOnUse" x1="-210.212" y1="696.925" x2="-210.212" y2="706.925" gradientTransform="matrix(1.167657, 0, 0, 0.87813, 0, 0)" xlink:href="#gradient-99"/>
    </defs>
  </symbol>
  <use id="use4" transform="matrix(1, 0, 0, 1, -2.442382, 0.178735)" xlink:href="#logo-symbol-wordmark"/>
</svg>
