<?xml version="1.0" encoding="utf-8"?>
<svg width="261" height="66" viewBox="0.112 0 200.677 66.061" fill="none" version="1.1" id="svg4" xmlns="http://www.w3.org/2000/svg" xmlns:xlink="http://www.w3.org/1999/xlink">
  <defs id="defs5"/>
  <symbol id="logo-symbol-wordmark">
    <g transform="matrix(0.904306, 0, 0, 0.904306, -40.331215, 23.546415)" style="">
      <rect x="-251.294" y="576.865" width="11.677" height="8.781" transform="matrix(0.412848, 0.9108, -0.548968, 1.211099, 493.134033, -495.193268)" fill="url(#gradient-1-74)"/>
      <rect x="-239.617" y="576.865" width="11.677" height="8.781" transform="matrix(0.412848, 0.9108, -0.548968, 1.211099, 493.134033, -495.193268)" fill="url(#gradient-0-65)"/>
      <rect x="-227.941" y="576.865" width="11.677" height="8.781" transform="matrix(0.412848, 0.9108, -0.548968, 1.211099, 493.134033, -495.193268)" fill="url(#gradient-1-75)"/>
      <rect x="-216.264" y="576.865" width="11.677" height="8.781" fill="url(#gradient-106-90)" transform="matrix(0.412848, 0.9108, -0.548968, 1.211099, 493.134033, -495.193268)"/>
      <rect x="-204.588" y="576.865" width="11.677" height="8.781" transform="matrix(0.412848, 0.9108, -0.548968, 1.211099, 493.134033, -495.193268)" fill="url(#gradient-99-42)"/>
      <rect x="-251.294" y="585.647" width="11.677" height="8.781" transform="matrix(0.412848, 0.9108, -0.548968, 1.211099, 493.134033, -495.193268)" fill="url(#gradient-0-66)"/>
      <rect x="-227.941" y="585.647" width="11.677" height="8.781" fill="url(#gradient-106-91)" transform="matrix(0.412848, 0.9108, -0.548968, 1.211099, 493.134033, -495.193268)"/>
      <rect x="-251.294" y="594.428" width="11.677" height="8.781" transform="matrix(0.412848, 0.9108, -0.548968, 1.211099, 493.134033, -495.193268)" fill="url(#gradient-1-76)"/>
      <rect x="-239.617" y="594.428" width="11.677" height="8.781" fill="url(#gradient-106-92)" transform="matrix(0.412848, 0.9108, -0.548968, 1.211099, 493.134033, -495.193268)"/>
      <rect x="-227.941" y="594.428" width="11.677" height="8.781" transform="matrix(0.412848, 0.9108, -0.548968, 1.211099, 493.134033, -495.193268)" fill="url(#gradient-0-67)"/>
      <rect x="-251.294" y="603.209" width="11.677" height="8.781" fill="url(#gradient-106-93)" transform="matrix(0.412848, 0.9108, -0.548968, 1.211099, 493.134033, -495.193268)"/>
      <rect x="-251.294" y="611.991" width="11.677" height="8.781" transform="matrix(0.412848, 0.9108, -0.548968, 1.211099, 493.134033, -495.193268)" fill="url(#gradient-99-45)"/>
      <line style="fill: rgb(216, 216, 216); stroke-linecap: round; stroke: rgb(235, 235, 235); stroke-width: 0.55291px;" x1="67.82" y1="-14.957" x2="92.001" y2="38.394"/>
      <line style="fill: rgb(216, 216, 216); stroke-linecap: round; stroke: rgb(235, 235, 235); stroke-width: 0.55291px;" x1="58.175" y1="6.333" x2="72.706" y2="38.394"/>
      <line style="fill: rgb(216, 216, 216); stroke-linecap: round; stroke: rgb(235, 235, 235); stroke-width: 0.55291px;" x1="48.53" y1="27.56" x2="53.441" y2="38.394"/>
    </g>
    <path
     d="m 74.4524,23.80249 h 5.087206 V 45.727001 H 74.4524 v -2.295996 q -3.128858,2.92627 -6.73042,2.92627 -4.546973,0 -7.518262,-3.286426 -2.948779,-3.353955 -2.948779,-8.373633 0,-4.929638 2.948779,-8.216064 2.94878,-3.286425 7.383203,-3.286425 3.82666,0 6.865479,3.151367 z M 62.432185,34.697216 q 0,3.151367 1.688232,5.132227 1.733252,2.003369 4.366895,2.003369 2.81372,0 4.546972,-1.93584 1.733252,-2.003369 1.733252,-5.087207 0,-3.083838 -1.733252,-5.087207 -1.733252,-1.958349 -4.501953,-1.958349 -2.611132,0 -4.366894,1.980859 -1.733252,2.003369 -1.733252,4.952148 z M 85.932379,23.80249 h 5.064697 v 1.95835 q 1.395606,-1.463135 2.476074,-2.003369 1.102979,-0.562744 2.611133,-0.562744 2.003369,0 4.186817,1.305566 l -2.318507,4.637011 q -1.440624,-1.035449 -2.81372,-1.035449 -4.141797,0 -4.141797,6.257715 v 11.367431 h -5.064697 z m 38.446671,21.406787 q 0,1.553173 -0.11254,2.723681 -0.09,1.193018 -0.27012,2.093408 -0.54024,2.476074 -2.11592,4.254346 -2.97129,3.421484 -8.17104,3.421484 -4.38941,0 -7.22564,-2.363525 -2.92627,-2.431055 -3.37646,-6.73042 h 5.0872 q 0.29263,1.620703 0.96792,2.498584 1.57569,2.048389 4.592,2.048389 5.55991,0 5.55991,-6.820459 v -3.061328 q -3.01631,3.083838 -6.95552,3.083838 -4.47944,0 -7.33818,-3.241407 -2.88125,-3.286425 -2.88125,-8.216064 0,-4.79458 2.67866,-8.148535 2.88125,-3.556542 7.6083,-3.556542 4.1418,0 6.88799,3.083837 V 23.80249 h 5.06469 z m -4.8621,-10.399512 q 0,-3.196386 -1.71075,-5.109716 -1.73325,-1.95835 -4.43442,-1.95835 -2.88125,0 -4.54697,2.138428 -1.50816,1.91333 -1.50816,4.952148 0,2.993799 1.50816,4.907129 1.64321,2.093408 4.54697,2.093408 2.90376,0 4.59199,-2.115918 1.55318,-1.91333 1.55318,-4.907129 z m 18.16538,6.842969 -9.85928,-17.850244 h 5.87505 l 6.70791,12.605469 6.25772,-12.605469 h 5.71748 l -17.46758,33.854687 h -5.78501 z M 161.29507,7.7080083 V 45.727001 h -5.06469 V 7.7080083 Z M 187.67652,35.957763 H 171.9647 q 0.20259,2.701172 1.75576,4.299365 1.55318,1.575684 3.98423,1.575684 1.89082,0 3.12886,-0.900391 1.21553,-0.90039 2.7687,-3.331445 l 4.27686,2.386035 q -0.99043,1.688233 -2.09341,2.90376 -1.10298,1.193017 -2.36353,1.980859 -1.26054,0.765332 -2.72368,1.125488 -1.46313,0.360157 -3.17388,0.360157 -4.90713,0 -7.87841,-3.151367 -2.97129,-3.173877 -2.97129,-8.418653 0,-5.199755 2.88125,-8.418652 2.90376,-3.173876 7.69834,-3.173876 4.8396,0 7.65332,3.083837 2.79121,3.061328 2.79121,8.486182 z m -5.19976,-4.141797 q -1.05796,-4.051757 -5.10971,-4.051757 -0.92291,0 -1.73326,0.292627 -0.81035,0.270117 -1.48564,0.810351 -0.65278,0.517725 -1.12549,1.260547 -0.4727,0.742822 -0.72031,1.688232 z"
     id="text21"
     fill="#615ef9"
     stroke="#615ef9"
     stroke-linejoin="round"
     aria-label="argyle" />
    <defs id="defs6">
      <linearGradient id="gradient-1-74" gradientUnits="userSpaceOnUse" x1="-210.212" y1="656.925" x2="-210.212" y2="666.925" gradientTransform="matrix(1.167657, 0, 0, 0.87813, 0, 0)" xlink:href="#gradient-1"/>
      <linearGradient id="gradient-1">
        <stop stop-color="#6363ff" offset="0"/>
        <stop stop-color="#563acc" offset="1"/>
      </linearGradient>
      <linearGradient id="gradient-0-65" gradientUnits="userSpaceOnUse" x1="-200.212" y1="656.925" x2="-200.212" y2="666.925" gradientTransform="matrix(1.167657, 0, 0, 0.87813, 0, 0)" xlink:href="#gradient-0"/>
      <linearGradient id="gradient-0">
        <stop stop-color="#5c4de3" offset="0"/>
        <stop stop-color="#1f26b3" offset="1"/>
      </linearGradient>
      <linearGradient id="gradient-1-75" gradientUnits="userSpaceOnUse" x1="-190.212" y1="656.925" x2="-190.212" y2="666.925" gradientTransform="matrix(1.167657, 0, 0, 0.87813, 0, 0)" xlink:href="#gradient-1"/>
      <linearGradient id="gradient-106-90" gradientUnits="userSpaceOnUse" x1="-180.212" y1="656.925" x2="-180.212" y2="666.925" gradientTransform="matrix(1.167657, 0, 0, 0.87813, 0, 0)" xlink:href="#gradient-106"/>
      <linearGradient id="gradient-106">
        <stop stop-color="#4a3ade" offset="0"/>
        <stop stop-color="#131cb3" offset="1"/>
      </linearGradient>
      <linearGradient id="gradient-99-42" gradientUnits="userSpaceOnUse" x1="-170.212" y1="656.925" x2="-170.212" y2="666.925" gradientTransform="matrix(1.167657, 0, 0, 0.87813, 0, 0)" xlink:href="#gradient-99"/>
      <linearGradient id="gradient-99">
        <stop stop-color="#3b2ad8" offset="0"/>
        <stop stop-color="#0d1583" offset="1"/>
      </linearGradient>
      <linearGradient id="gradient-0-66" gradientUnits="userSpaceOnUse" x1="-210.212" y1="666.925" x2="-210.212" y2="676.925" gradientTransform="matrix(1.167657, 0, 0, 0.87813, 0, 0)" xlink:href="#gradient-0"/>
      <linearGradient id="gradient-106-91" gradientUnits="userSpaceOnUse" x1="-190.212" y1="666.925" x2="-190.212" y2="676.925" gradientTransform="matrix(1.167657, 0, 0, 0.87813, 0, 0)" xlink:href="#gradient-106"/>
      <linearGradient id="gradient-1-76" gradientUnits="userSpaceOnUse" x1="-210.212" y1="676.925" x2="-210.212" y2="686.925" gradientTransform="matrix(1.167657, 0, 0, 0.87813, 0, 0)" xlink:href="#gradient-1"/>
      <linearGradient id="gradient-106-92" gradientUnits="userSpaceOnUse" x1="-200.212" y1="676.925" x2="-200.212" y2="686.925" gradientTransform="matrix(1.167657, 0, 0, 0.87813, 0, 0)" xlink:href="#gradient-106"/>
      <linearGradient id="gradient-0-67" gradientUnits="userSpaceOnUse" x1="-190.212" y1="676.925" x2="-190.212" y2="686.925" gradientTransform="matrix(1.167657, 0, 0, 0.87813, 0, 0)" xlink:href="#gradient-0"/>
      <linearGradient id="gradient-106-93" gradientUnits="userSpaceOnUse" x1="-210.212" y1="686.925" x2="-210.212" y2="696.925" gradientTransform="matrix(1.167657, 0, 0, 0.87813, 0, 0)" xlink:href="#gradient-106"/>
      <linearGradient id="gradient-99-45" gradientUnits="userSpaceOnUse" x1="-210.212" y1="696.925" x2="-210.212" y2="706.925" gradientTransform="matrix(1.167657, 0, 0, 0.87813, 0, 0)" xlink:href="#gradient-99"/>
    </defs>
  </symbol>
  <use id="use4" transform="matrix(1.134866, 0, 0, 1.134866, -3.281786, -0.269762)" style="transform-box: fill-box;" xlink:href="#logo-symbol-wordmark"/>
</svg>
