<?xml version="1.0" encoding="utf-8"?>
<svg width="261" height="66" viewBox="0.35 0.29 307.749 66.239" fill="none" version="1.1" id="svg4" xmlns="http://www.w3.org/2000/svg" xmlns:xlink="http://www.w3.org/1999/xlink">
  <defs/>
  <symbol id="logo-symbol-wordmark">
    <g style="transform-origin: 42.2815px 30.3653px;" transform="matrix(0, -2.027412, 3.469915, 0, 14.251863, 2.634686)">
      <g transform="matrix(0.707107, 0.707107, -0.707107, 0.707107, -42.718349, -74.634865)" style="transform-origin: 85px 105px;">
        <rect x="74.643" y="94.643" width="10" height="10" fill="url('#gradient-0-9')"/>
        <rect x="85.61" y="94.39" width="10" height="10" fill="url('#gradient-0-10')"/>
        <rect x="74.39" y="105.61" width="10" height="10" fill="url('#gradient-0-11')"/>
        <rect x="85.357" y="105.357" width="10" height="10" fill="url('#gradient-0-12')"/>
        <line fill="#c9c9cf" stroke="#c9c9cf" stroke-width="0.25px" stroke-linecap="round" x1="90.374" y1="92.285" x2="90.361" y2="118.412"/>
        <line fill="#c9c9cf" stroke="#c9c9cf" stroke-width="0.25px" stroke-linecap="round" transform-box="fill-box" transform-origin="50% 50%" x1="79.658" y1="91.628" x2="79.645" y2="117.755"/>
        <line fill="#c9c9cf" stroke="#c9c9cf" stroke-width="0.25px" stroke-linecap="round" transform-origin="104.712px 91.739px" x1="97.71" y1="99.647" x2="71.583" y2="99.66"/>
        <line fill="#c9c9cf" stroke="#c9c9cf" stroke-width="0.25px" stroke-linecap="round" transform-origin="105.415px 102.452px" x1="98.413" y1="110.36" x2="72.286" y2="110.373"/>
      </g>
    </g>
    <path d="M 143.173 21.412 L 148.77 21.412 L 148.77 45.531 L 143.173 45.531 L 143.173 43.006 C 140.878 45.152 138.411 46.224 135.769 46.224 C 132.435 46.224 129.678 45.02 127.499 42.61 C 125.336 40.15 124.255 37.08 124.255 33.398 C 124.255 29.783 125.336 26.77 127.499 24.359 C 129.662 21.949 132.369 20.745 135.621 20.745 C 138.427 20.745 140.945 21.9 143.173 24.211 L 143.173 21.412 Z M 129.95 33.398 C 129.95 35.709 130.569 37.591 131.807 39.043 C 133.079 40.513 134.68 41.248 136.611 41.248 C 138.675 41.248 140.342 40.538 141.613 39.118 C 142.885 37.648 143.52 35.784 143.52 33.522 C 143.52 31.26 142.885 29.394 141.613 27.926 C 140.342 26.489 138.691 25.771 136.66 25.771 C 134.746 25.771 133.145 26.497 131.856 27.95 C 130.586 29.42 129.95 31.235 129.95 33.398 Z M 155.802 21.412 L 161.373 21.412 L 161.373 23.567 C 162.396 22.494 163.305 21.76 164.097 21.363 C 164.906 20.95 165.864 20.745 166.969 20.745 C 168.439 20.745 169.974 21.223 171.575 22.18 L 169.025 27.281 C 167.968 26.522 166.936 26.143 165.93 26.143 C 162.893 26.143 161.373 28.437 161.373 33.027 L 161.373 45.531 L 155.802 45.531 L 155.802 21.412 Z M 198.096 44.961 C 198.096 46.101 198.055 47.1 197.972 47.958 C 197.906 48.833 197.806 49.6 197.674 50.26 C 197.278 52.077 196.503 53.637 195.347 54.941 C 193.168 57.451 190.172 58.705 186.358 58.705 C 183.139 58.705 180.49 57.838 178.41 56.105 C 176.264 54.322 175.025 51.853 174.695 48.701 L 180.292 48.701 C 180.507 49.89 180.861 50.806 181.356 51.45 C 182.512 52.951 184.196 53.703 186.407 53.703 C 190.485 53.703 192.524 51.202 192.524 46.2 L 192.524 42.832 C 190.312 45.093 187.762 46.224 184.873 46.224 C 181.588 46.224 178.896 45.036 176.801 42.659 C 174.687 40.249 173.63 37.236 173.63 33.621 C 173.63 30.104 174.613 27.116 176.577 24.657 C 178.691 22.048 181.48 20.745 184.947 20.745 C 187.985 20.745 190.511 21.876 192.524 24.137 L 192.524 21.412 L 198.096 21.412 L 198.096 44.961 Z M 192.747 33.522 C 192.747 31.178 192.12 29.304 190.865 27.901 C 189.594 26.464 187.968 25.747 185.987 25.747 C 183.874 25.747 182.206 26.531 180.985 28.099 C 179.879 29.502 179.326 31.317 179.326 33.546 C 179.326 35.742 179.879 37.542 180.985 38.944 C 182.19 40.48 183.858 41.248 185.987 41.248 C 188.117 41.248 189.8 40.472 191.039 38.92 C 192.177 37.516 192.747 35.718 192.747 33.522 Z M 212.73 41.05 L 201.884 21.412 L 208.347 21.412 L 215.726 35.28 L 222.611 21.412 L 228.9 21.412 L 209.685 58.655 L 203.321 58.655 L 212.73 41.05 Z M 238.706 3.708 L 238.706 45.531 L 233.134 45.531 L 233.134 3.708 L 238.706 3.708 Z M 267.727 34.785 L 250.443 34.785 C 250.592 36.766 251.235 38.342 252.374 39.514 C 253.514 40.67 254.974 41.248 256.758 41.248 C 258.144 41.248 259.291 40.918 260.2 40.257 C 261.091 39.596 262.106 38.375 263.245 36.592 L 267.95 39.217 C 267.224 40.455 266.456 41.519 265.647 42.412 C 264.838 43.286 263.972 44.012 263.047 44.591 C 262.123 45.152 261.124 45.564 260.05 45.828 C 258.978 46.092 257.814 46.224 256.56 46.224 C 252.96 46.224 250.071 45.069 247.892 42.758 C 245.713 40.43 244.624 37.344 244.624 33.497 C 244.624 29.684 245.68 26.597 247.793 24.236 C 249.923 21.909 252.746 20.745 256.262 20.745 C 259.811 20.745 262.618 21.876 264.681 24.137 C 266.729 26.381 267.752 29.493 267.752 33.472 L 267.727 34.785 Z M 262.007 30.228 C 261.231 27.257 259.357 25.771 256.386 25.771 C 255.709 25.771 255.073 25.879 254.479 26.093 C 253.885 26.291 253.34 26.588 252.845 26.984 C 252.366 27.364 251.954 27.827 251.607 28.371 C 251.261 28.916 250.996 29.535 250.814 30.228 L 262.007 30.228 Z" id="text21" fill="#c9c9cf" stroke="#c9c9cf" stroke-linejoin="round" aria-label="argyle" style=""/>
    <defs id="defs5">
      <linearGradient id="gradient-0">
        <stop stop-color="#6364FF" offset="0"/>
        <stop stop-color="#563ACC" offset="1"/>
      </linearGradient>
      <linearGradient id="gradient-0-9" gradientUnits="userSpaceOnUse" x1="40.407" y1="97.4" x2="40.407" y2="107.4" gradientTransform="matrix(1, 0, 0, 1, 39.237117, -2.756915)" xlink:href="#gradient-0"/>
      <linearGradient id="gradient-0-10" gradientUnits="userSpaceOnUse" x1="40.407" y1="97.4" x2="40.407" y2="107.4" gradientTransform="matrix(1, 0, 0, 1, 50.204251, -3.010692)" xlink:href="#gradient-0"/>
      <linearGradient id="gradient-0-11" gradientUnits="userSpaceOnUse" x1="40.407" y1="97.4" x2="40.407" y2="107.4" gradientTransform="matrix(1, 0, 0, 1, 38.98334, 8.21022)" xlink:href="#gradient-0"/>
      <linearGradient id="gradient-0-12" gradientUnits="userSpaceOnUse" x1="40.407" y1="97.4" x2="40.407" y2="107.4" gradientTransform="matrix(1, 0, 0, 1, 49.950474, 7.956444)" xlink:href="#gradient-0"/>
    </defs>
  </symbol>
  <use id="use4" transform="matrix(1.134866, 0, 0, 1.134866, -3.281786, -2.269762)" style="transform-box: fill-box;" xlink:href="#logo-symbol-wordmark"/>
</svg>
