<?xml version="1.0" encoding="utf-8"?>
<svg width="261" height="66" viewBox="0.112 0 49.971 66.01" fill="none" version="1.1" id="svg4" xmlns="http://www.w3.org/2000/svg" xmlns:xlink="http://www.w3.org/1999/xlink">
  <defs id="defs5"/>
  <symbol id="logo-symbol-wordmark">
    <g transform="matrix(0.904306, 0, 0, 0.904306, -40.331215, 23.546415)" style="">
      <rect x="-251.294" y="576.865" width="11.677" height="8.781" transform="matrix(0.412848, 0.9108, -0.548968, 1.211099, 493.134033, -495.193268)" fill="url(#gradient-1-74)"/>
      <rect x="-239.617" y="576.865" width="11.677" height="8.781" transform="matrix(0.412848, 0.9108, -0.548968, 1.211099, 493.134033, -495.193268)" fill="url(#gradient-0-65)"/>
      <rect x="-227.941" y="576.865" width="11.677" height="8.781" transform="matrix(0.412848, 0.9108, -0.548968, 1.211099, 493.134033, -495.193268)" fill="url(#gradient-1-75)"/>
      <rect x="-216.264" y="576.865" width="11.677" height="8.781" fill="url(#gradient-106-90)" transform="matrix(0.412848, 0.9108, -0.548968, 1.211099, 493.134033, -495.193268)"/>
      <rect x="-204.588" y="576.865" width="11.677" height="8.781" transform="matrix(0.412848, 0.9108, -0.548968, 1.211099, 493.134033, -495.193268)" fill="url(#gradient-99-42)"/>
      <rect x="-251.294" y="585.647" width="11.677" height="8.781" transform="matrix(0.412848, 0.9108, -0.548968, 1.211099, 493.134033, -495.193268)" fill="url(#gradient-0-66)"/>
      <rect x="-227.941" y="585.647" width="11.677" height="8.781" fill="url(#gradient-106-91)" transform="matrix(0.412848, 0.9108, -0.548968, 1.211099, 493.134033, -495.193268)"/>
      <rect x="-251.294" y="594.428" width="11.677" height="8.781" transform="matrix(0.412848, 0.9108, -0.548968, 1.211099, 493.134033, -495.193268)" fill="url(#gradient-1-76)"/>
      <rect x="-239.617" y="594.428" width="11.677" height="8.781" fill="url(#gradient-106-92)" transform="matrix(0.412848, 0.9108, -0.548968, 1.211099, 493.134033, -495.193268)"/>
      <rect x="-227.941" y="594.428" width="11.677" height="8.781" transform="matrix(0.412848, 0.9108, -0.548968, 1.211099, 493.134033, -495.193268)" fill="url(#gradient-0-67)"/>
      <rect x="-251.294" y="603.209" width="11.677" height="8.781" fill="url(#gradient-106-93)" transform="matrix(0.412848, 0.9108, -0.548968, 1.211099, 493.134033, -495.193268)"/>
      <rect x="-251.294" y="611.991" width="11.677" height="8.781" transform="matrix(0.412848, 0.9108, -0.548968, 1.211099, 493.134033, -495.193268)" fill="url(#gradient-99-45)"/>
    </g>
    <defs id="defs6">
      <linearGradient id="gradient-1-74" gradientUnits="userSpaceOnUse" x1="-210.212" y1="656.925" x2="-210.212" y2="666.925" gradientTransform="matrix(1.167657, 0, 0, 0.87813, 0, 0)" xlink:href="#gradient-1"/>
      <linearGradient id="gradient-1">
        <stop stop-color="#6363ff" offset="0"/>
        <stop stop-color="#563acc" offset="1"/>
      </linearGradient>
      <linearGradient id="gradient-0-65" gradientUnits="userSpaceOnUse" x1="-200.212" y1="656.925" x2="-200.212" y2="666.925" gradientTransform="matrix(1.167657, 0, 0, 0.87813, 0, 0)" xlink:href="#gradient-0"/>
      <linearGradient id="gradient-0">
        <stop stop-color="#5c4de3" offset="0"/>
        <stop stop-color="#1f26b3" offset="1"/>
      </linearGradient>
      <linearGradient id="gradient-1-75" gradientUnits="userSpaceOnUse" x1="-190.212" y1="656.925" x2="-190.212" y2="666.925" gradientTransform="matrix(1.167657, 0, 0, 0.87813, 0, 0)" xlink:href="#gradient-1"/>
      <linearGradient id="gradient-106-90" gradientUnits="userSpaceOnUse" x1="-180.212" y1="656.925" x2="-180.212" y2="666.925" gradientTransform="matrix(1.167657, 0, 0, 0.87813, 0, 0)" xlink:href="#gradient-106"/>
      <linearGradient id="gradient-106">
        <stop stop-color="#4a3ade" offset="0"/>
        <stop stop-color="#131cb3" offset="1"/>
      </linearGradient>
      <linearGradient id="gradient-99-42" gradientUnits="userSpaceOnUse" x1="-170.212" y1="656.925" x2="-170.212" y2="666.925" gradientTransform="matrix(1.167657, 0, 0, 0.87813, 0, 0)" xlink:href="#gradient-99"/>
      <linearGradient id="gradient-99">
        <stop stop-color="#3b2ad8" offset="0"/>
        <stop stop-color="#0d1583" offset="1"/>
      </linearGradient>
      <linearGradient id="gradient-0-66" gradientUnits="userSpaceOnUse" x1="-210.212" y1="666.925" x2="-210.212" y2="676.925" gradientTransform="matrix(1.167657, 0, 0, 0.87813, 0, 0)" xlink:href="#gradient-0"/>
      <linearGradient id="gradient-106-91" gradientUnits="userSpaceOnUse" x1="-190.212" y1="666.925" x2="-190.212" y2="676.925" gradientTransform="matrix(1.167657, 0, 0, 0.87813, 0, 0)" xlink:href="#gradient-106"/>
      <linearGradient id="gradient-1-76" gradientUnits="userSpaceOnUse" x1="-210.212" y1="676.925" x2="-210.212" y2="686.925" gradientTransform="matrix(1.167657, 0, 0, 0.87813, 0, 0)" xlink:href="#gradient-1"/>
      <linearGradient id="gradient-106-92" gradientUnits="userSpaceOnUse" x1="-200.212" y1="676.925" x2="-200.212" y2="686.925" gradientTransform="matrix(1.167657, 0, 0, 0.87813, 0, 0)" xlink:href="#gradient-106"/>
      <linearGradient id="gradient-0-67" gradientUnits="userSpaceOnUse" x1="-190.212" y1="676.925" x2="-190.212" y2="686.925" gradientTransform="matrix(1.167657, 0, 0, 0.87813, 0, 0)" xlink:href="#gradient-0"/>
      <linearGradient id="gradient-106-93" gradientUnits="userSpaceOnUse" x1="-210.212" y1="686.925" x2="-210.212" y2="696.925" gradientTransform="matrix(1.167657, 0, 0, 0.87813, 0, 0)" xlink:href="#gradient-106"/>
      <linearGradient id="gradient-99-45" gradientUnits="userSpaceOnUse" x1="-210.212" y1="696.925" x2="-210.212" y2="706.925" gradientTransform="matrix(1.167657, 0, 0, 0.87813, 0, 0)" xlink:href="#gradient-99"/>
    </defs>
  </symbol>
  <use id="use4" transform="matrix(1.1348659992218018, 0, 0, 1.1348659992218018, -3.2817859649658203, -0.26976197957992554)" style="transform-box: fill-box;" xlink:href="#logo-symbol-wordmark"/>
</svg>
