<?xml version="1.0" encoding="utf-8"?>
<svg width="261" height="66" viewBox="0 0 261 66" fill="none" version="1.1" id="svg4" xmlns="http://www.w3.org/2000/svg" xmlns:xlink="http://www.w3.org/1999/xlink">
  <defs id="defs5"/>
  <symbol id="logo-symbol-wordmark">
    <g transform="matrix(0.904306, 0, 0, 0.904306, -40.331215, 23.546415)" style="">
      <rect x="-251.294" y="576.865" width="11.677" height="8.781" transform="matrix(0.412848, 0.9108, -0.548968, 1.211099, 493.134033, -495.193268)" fill="url(#gradient-1-74)"/>
      <rect x="-239.617" y="576.865" width="11.677" height="8.781" transform="matrix(0.412848, 0.9108, -0.548968, 1.211099, 493.134033, -495.193268)" fill="url(#gradient-0-65)"/>
      <rect x="-227.941" y="576.865" width="11.677" height="8.781" transform="matrix(0.412848, 0.9108, -0.548968, 1.211099, 493.134033, -495.193268)" fill="url(#gradient-1-75)"/>
      <rect x="-216.264" y="576.865" width="11.677" height="8.781" fill="url(#gradient-106-90)" transform="matrix(0.412848, 0.9108, -0.548968, 1.211099, 493.134033, -495.193268)"/>
      <rect x="-204.588" y="576.865" width="11.677" height="8.781" transform="matrix(0.412848, 0.9108, -0.548968, 1.211099, 493.134033, -495.193268)" fill="url(#gradient-99-42)"/>
      <rect x="-251.294" y="585.647" width="11.677" height="8.781" transform="matrix(0.412848, 0.9108, -0.548968, 1.211099, 493.134033, -495.193268)" fill="url(#gradient-0-66)"/>
      <rect x="-227.941" y="585.647" width="11.677" height="8.781" fill="url(#gradient-106-91)" transform="matrix(0.412848, 0.9108, -0.548968, 1.211099, 493.134033, -495.193268)"/>
      <rect x="-251.294" y="594.428" width="11.677" height="8.781" transform="matrix(0.412848, 0.9108, -0.548968, 1.211099, 493.134033, -495.193268)" fill="url(#gradient-1-76)"/>
      <rect x="-239.617" y="594.428" width="11.677" height="8.781" fill="url(#gradient-106-92)" transform="matrix(0.412848, 0.9108, -0.548968, 1.211099, 493.134033, -495.193268)"/>
      <rect x="-227.941" y="594.428" width="11.677" height="8.781" transform="matrix(0.412848, 0.9108, -0.548968, 1.211099, 493.134033, -495.193268)" fill="url(#gradient-0-67)"/>
      <rect x="-251.294" y="603.209" width="11.677" height="8.781" fill="url(#gradient-106-93)" transform="matrix(0.412848, 0.9108, -0.548968, 1.211099, 493.134033, -495.193268)"/>
      <rect x="-251.294" y="611.991" width="11.677" height="8.781" transform="matrix(0.412848, 0.9108, -0.548968, 1.211099, 493.134033, -495.193268)" fill="url(#gradient-99-45)"/>
    </g>
    <path
     d="m 83.822288,21.362169 h 6.654199 v 28.677832 h -6.654199 v -3.003223 q -4.092627,3.827637 -8.803564,3.827637 -5.947559,0 -9.834082,-4.29873 -3.85708,-4.387061 -3.85708,-10.95293 0,-6.448096 3.85708,-10.746826 3.85708,-4.29873 9.657422,-4.29873 5.005371,0 8.980224,4.12207 z M 68.099534,35.612755 q 0,4.12207 2.208252,6.713086 2.267139,2.620459 5.712012,2.620459 3.68042,0 5.947559,-2.532129 2.267138,-2.620459 2.267138,-6.654199 0,-4.03374 -2.267138,-6.654199 -2.267139,-2.561573 -5.888672,-2.561573 -3.41543,0 -5.712012,2.591016 -2.267139,2.620459 -2.267139,6.477539 z M 98.838401,21.362169 h 6.624759 v 2.561572 q 1.82549,-1.913818 3.23877,-2.620458 1.44272,-0.736084 3.41543,-0.736084 2.62045,0 5.47646,1.707714 l -3.03267,6.065332 q -1.88437,-1.354394 -3.68042,-1.354394 -5.41757,0 -5.41757,8.185254 v 14.868896 h -6.624759 z m 50.289259,28.000635 q 0,2.031591 -0.14722,3.562646 -0.11777,1.560498 -0.35332,2.738232 -0.70664,3.23877 -2.76767,5.564795 -3.88653,4.475391 -10.68794,4.475391 -5.74146,0 -9.45132,-3.091553 -3.82764,-3.179883 -4.4165,-8.803564 h 6.6542 q 0.38276,2.119922 1.26606,3.268213 2.06104,2.679345 6.00645,2.679345 7.2725,0 7.2725,-8.921337 v -4.004297 q -3.94541,4.03374 -9.09799,4.03374 -5.85923,0 -9.59854,-4.239844 -3.76875,-4.29873 -3.76875,-10.746826 0,-6.271435 3.50376,-10.658496 3.76875,-4.65205 9.95186,-4.65205 5.41758,0 9.00966,4.03374 v -3.23877 h 6.62476 z M 142.7679,35.759972 q 0,-4.180957 -2.2377,-6.683643 -2.26714,-2.561572 -5.80034,-2.561572 -3.76875,0 -5.94756,2.797119 -1.97271,2.502686 -1.97271,6.477539 0,3.915967 1.97271,6.418652 2.14936,2.738233 5.94756,2.738233 3.79819,0 6.00644,-2.767676 2.0316,-2.502685 2.0316,-6.418652 z m 23.76078,8.950781 -12.89619,-23.348584 h 7.68472 l 8.77412,16.488281 8.18526,-16.488281 h 7.47861 l -22.84805,44.282812 h -7.56694 z M 197.41476,0.31016756 V 50.040001 H 190.79 V 0.31016756 Z M 231.92239,37.261583 h -20.55146 q 0.26499,3.533203 2.29658,5.623682 2.03159,2.061035 5.21147,2.061035 2.47325,0 4.09263,-1.177735 1.58994,-1.177734 3.62153,-4.357617 l 5.59424,3.120996 q -1.29551,2.208252 -2.73823,3.798194 -1.44272,1.560498 -3.09155,2.591015 -1.64883,1.001074 -3.56265,1.472168 -1.91382,0.471094 -4.15151,0.471094 -6.41866,0 -10.30518,-4.12207 -3.88652,-4.151514 -3.88652,-11.011817 0,-6.801415 3.76875,-11.011816 3.79819,-4.151513 10.06963,-4.151513 6.33032,0 10.01074,4.03374 3.65098,4.004297 3.65098,11.100146 z m -6.80141,-5.417578 q -1.38384,-5.299805 -6.68365,-5.299805 -1.20717,0 -2.26714,0.382764 -1.05996,0.35332 -1.94326,1.059961 -0.85385,0.677197 -1.47216,1.648828 -0.61832,0.971631 -0.94219,2.208252 z"
     id="text21"
     fill="#ebebeb"
     aria-label="argyle" />
    <defs id="defs6">
      <linearGradient id="gradient-1-74" gradientUnits="userSpaceOnUse" x1="-210.212" y1="656.925" x2="-210.212" y2="666.925" gradientTransform="matrix(1.167657, 0, 0, 0.87813, 0, 0)" xlink:href="#gradient-1"/>
      <linearGradient id="gradient-1">
        <stop stop-color="#6363ff" offset="0"/>
        <stop stop-color="#563acc" offset="1"/>
      </linearGradient>
      <linearGradient id="gradient-0-65" gradientUnits="userSpaceOnUse" x1="-200.212" y1="656.925" x2="-200.212" y2="666.925" gradientTransform="matrix(1.167657, 0, 0, 0.87813, 0, 0)" xlink:href="#gradient-0"/>
      <linearGradient id="gradient-0">
        <stop stop-color="#5c4de3" offset="0"/>
        <stop stop-color="#1f26b3" offset="1"/>
      </linearGradient>
      <linearGradient id="gradient-1-75" gradientUnits="userSpaceOnUse" x1="-190.212" y1="656.925" x2="-190.212" y2="666.925" gradientTransform="matrix(1.167657, 0, 0, 0.87813, 0, 0)" xlink:href="#gradient-1"/>
      <linearGradient id="gradient-106-90" gradientUnits="userSpaceOnUse" x1="-180.212" y1="656.925" x2="-180.212" y2="666.925" gradientTransform="matrix(1.167657, 0, 0, 0.87813, 0, 0)" xlink:href="#gradient-106"/>
      <linearGradient id="gradient-106">
        <stop stop-color="#4a3ade" offset="0"/>
        <stop stop-color="#131cb3" offset="1"/>
      </linearGradient>
      <linearGradient id="gradient-99-42" gradientUnits="userSpaceOnUse" x1="-170.212" y1="656.925" x2="-170.212" y2="666.925" gradientTransform="matrix(1.167657, 0, 0, 0.87813, 0, 0)" xlink:href="#gradient-99"/>
      <linearGradient id="gradient-99">
        <stop stop-color="#3b2ad8" offset="0"/>
        <stop stop-color="#0d1583" offset="1"/>
      </linearGradient>
      <linearGradient id="gradient-0-66" gradientUnits="userSpaceOnUse" x1="-210.212" y1="666.925" x2="-210.212" y2="676.925" gradientTransform="matrix(1.167657, 0, 0, 0.87813, 0, 0)" xlink:href="#gradient-0"/>
      <linearGradient id="gradient-106-91" gradientUnits="userSpaceOnUse" x1="-190.212" y1="666.925" x2="-190.212" y2="676.925" gradientTransform="matrix(1.167657, 0, 0, 0.87813, 0, 0)" xlink:href="#gradient-106"/>
      <linearGradient id="gradient-1-76" gradientUnits="userSpaceOnUse" x1="-210.212" y1="676.925" x2="-210.212" y2="686.925" gradientTransform="matrix(1.167657, 0, 0, 0.87813, 0, 0)" xlink:href="#gradient-1"/>
      <linearGradient id="gradient-106-92" gradientUnits="userSpaceOnUse" x1="-200.212" y1="676.925" x2="-200.212" y2="686.925" gradientTransform="matrix(1.167657, 0, 0, 0.87813, 0, 0)" xlink:href="#gradient-106"/>
      <linearGradient id="gradient-0-67" gradientUnits="userSpaceOnUse" x1="-190.212" y1="676.925" x2="-190.212" y2="686.925" gradientTransform="matrix(1.167657, 0, 0, 0.87813, 0, 0)" xlink:href="#gradient-0"/>
      <linearGradient id="gradient-106-93" gradientUnits="userSpaceOnUse" x1="-210.212" y1="686.925" x2="-210.212" y2="696.925" gradientTransform="matrix(1.167657, 0, 0, 0.87813, 0, 0)" xlink:href="#gradient-106"/>
      <linearGradient id="gradient-99-45" gradientUnits="userSpaceOnUse" x1="-210.212" y1="696.925" x2="-210.212" y2="706.925" gradientTransform="matrix(1.167657, 0, 0, 0.87813, 0, 0)" xlink:href="#gradient-99"/>
    </defs>
  </symbol>
  <use id="use4" transform="matrix(1.134866, 0, 0, 1.134866, -3.281786, -0.269762)" style="transform-box: fill-box;" xlink:href="#logo-symbol-wordmark"/>
</svg>
